<?xml version="1.0" encoding="utf-8"?>
<!-- Generator: Adobe Illustrator 27.5.0, SVG Export Plug-In . SVG Version: 6.00 Build 0)  -->
<svg version="1.1" id="Ñëîé_2" xmlns="http://www.w3.org/2000/svg" xmlns:xlink="http://www.w3.org/1999/xlink" x="0px" y="0px"
	 viewBox="0 0 600 300" style="enable-background:new 0 0 600 300;" xml:space="preserve">
<g>
	<g>
		<polygon style="fill:#85EAFF;" points="599.693,81.558 0,81.558 0,0 600,0 		"/>
		<path style="fill:#A7EFFF;" d="M0,42.043c44.65-3.063,177.845-5.276,245.498-1.544c67.653,3.732,210.378,0.229,257.802-0.208
			c47.424-0.436,96.393,5.252,96.393,5.252v59.137H0V42.043z"/>
		<path style="fill:#B6EFFF;" d="M0,81.558c0,0,164.276,0.738,240.964,2.05c76.688,1.313,159.714,4.95,229.235-1.025
			C539.72,76.608,600,74.858,600,74.858v52.179L0,134.502V81.558z"/>
		<path style="fill:#D0F2FF;" d="M379.437,116.344c-7.335-0.809-14.661-1.7-21.839-2.574c-15.854-1.93-32.248-3.926-48.545-5.014
			c-45.87-3.061-101.68,0.623-155.654,4.185c-53.048,3.502-108.256,7.116-153.4,4.321v7.052l0,0v60.708h600c0,0,0-26.839,0-67.53
			C566.026,114.948,464.904,115.51,379.437,116.344z"/>
		<path style="fill:#A7EFFF;" d="M599.693,21.433c-51.49-5.25-129.336-10.201-182.915-8.965
			c-24.549,0.566-49.354,2.581-73.342,4.529c-32.865,2.669-66.849,5.429-100.14,4.42c-19.217-0.583-38.802-2.442-57.742-4.239
			c-17.067-1.62-34.714-3.295-52.219-4.058c-20.093-0.877-47.103,0.28-72.253,3.095C43.232,18.213,19.095,21.808,0,28.006v15.423
			c34.1-12.561,97.944-17.254,132.698-15.738c17.133,0.748,34.593,2.405,51.477,4.007c19.17,1.819,38.992,3.701,58.678,4.298
			c34.106,1.035,68.501-1.759,101.764-4.461c23.781-1.932,48.371-3.929,72.497-4.485c53.475-1.232,131.56,3.785,182.579,9.045
			V21.433z"/>
	</g>
	<g>
		<g>
			<path style="fill:#D0F2FF;" d="M140.618,64.213c1.417-3.144,4.925-6.45,10.727-4.484c-2.458-8.555,3.048-19.174,17.8-19.174
				c14.751,0,18.587,8.948,18.095,15.143c5.605-3.048,16.226,0.688,13.178,9.341c7.277-1.18,15.288,2.455,15.046,7.375
				c-0.248,5.034-7.979,7.951-14.689,5.763c-3.209,6.417-10.94,5.993-15.754,0.736c-5.543,4.223-16.046,6.411-26.986,1.89
				C147.095,76.282,140.618,64.213,140.618,64.213z"/>
			<path style="fill:#85EAFF;" d="M208.367,65.537c2.107,2.796-1.248,9.941-9.635,6.004c-4.084,5.542-11.524,3.685-13.274-2.424
				c-4.012,5.049-12.982,4.611-14.878-0.348c-1.751,2.771-6.418,4.23-6.418,4.23s-5.682,3.23-8.484,6.68
				c0.761,0.41,1.547,0.788,2.358,1.123c10.94,4.521,21.443,2.333,26.986-1.89c4.814,5.257,12.544,5.682,15.754-0.736
				c6.71,2.188,14.441-0.729,14.689-5.763C215.616,69.322,212.505,66.738,208.367,65.537z"/>
			<path style="fill:#FFFFFF;" d="M0,53.529c0,0,3.61,0.292,8.764,4.375c5.057-8.751,13.323-4.23,13.323-4.23
				s0.292-22.023,21.734-28.587c26.548-7.147,38.558,12.981,38.558,12.981s4.765-4.667,11.572-0.583
				c6.807,4.084,6.613,9.432,6.613,9.432s5.154-5.445,10.113,0c4.96,5.445,2.626,13.224,2.626,13.224s6.807-3.889,11.67-1.264
				c4.862,2.625,4.473,8.654,4.473,8.654s16.684-7.84,29.173-1.896c10.113,4.813,13.225,14.536,13.225,14.536
				s8.217,0.486,6.758,7.925s-10.794,6.709-14.733,4.23c-3.647,5.834-15.608,7.147-20.713,1.021
				c-4.23,7.73-18.379,9.043-25.381,1.896c-5.543,9.772-24.797,11.96-31.799,2.042c-4.522,4.959-15.316,4.376-17.358-0.438
				C63.221,103.41,42.07,101.66,37.84,89.7c-7.002,5.688-14.295,3.354-16.191,0.875C16.397,95.826,4.297,96.117,0,87.366
				C0,74.677,0,53.529,0,53.529z"/>
			<path style="fill:#D0F2FF;" d="M21.649,90.575c1.896,2.479,9.19,4.813,16.191-0.875c4.23,11.96,25.381,13.71,30.778,7.146
				c2.042,4.813,12.836,5.396,17.358,0.438c7.002,9.918,26.256,7.73,31.799-2.042c7.002,7.147,21.151,5.834,25.381-1.896
				c5.105,6.126,17.067,4.813,20.713-1.021c3.938,2.479,13.274,3.209,14.733-4.23s-6.758-7.925-6.758-7.925s-0.969-3.022-3.577-6.53
				c0.751,5.964-2.501,8.329-8.19,8.329c-2.188,5.251-9.773,8.313-17.65,2.236c-8.898,7.632-19.109,5.932-26.402-0.568
				c-8.314,11.44-26.84,7.958-32.383,1.395c-1.459,4.521-11.086,8.313-14.587,0.146c-8.023,8.46-21.88,4.813-26.986-6.563
				c-7.877,5.688-16.337,4.667-20.713-1.313C11.584,86.491,0,79.636,0,79.636c0,2.741,0,5.381,0,7.73
				C4.297,96.117,16.397,95.826,21.649,90.575z"/>
		</g>
		<path style="fill:#FFFFFF;" d="M450.941,110.846c-0.05-3.136-4.947-5.447-9.58-4.695c1.941-5.51-4.821-7.889-8.391-5.948
			c0.313-3.944-2.129-9.642-11.521-9.642c-9.392,0-12.899,6.762-11.333,12.209c-3.694-1.252-5.927,0.853-6.83,2.855
			c-0.449,0.996-0.371,3.031,1.633,4.972c-4.884-1.377-7.29,0.448-7.451,1.815c-0.503,4.271,3.436,5.948,6.28,4.417
			c0.583,4.302,7.585,6.126,11.596,0.875c2.626,3.573,6.637,0.729,6.637,0.729s6.929,5.834,13.274-1.313
			c2.334,1.604,5.397,0.219,6.054-1.458C444.664,118.068,451.02,115.731,450.941,110.846z"/>
		<path style="fill:#85EAFF;" d="M435.255,117.12c2.334,1.604,5.397,0.219,6.054-1.458c3.355,2.407,9.711,0.069,9.633-4.815
			c-0.018-1.103-0.637-2.104-1.633-2.906l0,0c-0.825,5.187-7.781,4.95-10.479,2.652c-0.656,2.223-4.011,4.559-6.564,1.423
			c-2.48,5.251-9.19,4.448-11.888,1.072c-1.532,1.437-4.522,2.647-6.345-0.27c-1.969,4.302-8.606,3.136-9.044-0.438
			c-2.698,2.334-6.272,0.292-5.852-1.787l0,0c-1.045,0.466-1.594,1.191-1.668,1.819c-0.503,4.271,3.436,5.948,6.28,4.417
			c0.583,4.302,7.585,6.126,11.596,0.875c2.626,3.573,6.637,0.729,6.637,0.729S428.91,124.267,435.255,117.12z"/>
		<path style="fill:#FFFFFF;" d="M600,9.245c-5.634-1.796-13.014-2.342-21.611-0.028c-21.443,6.563-21.734,28.587-21.734,28.587
			s-8.266-4.521-13.323,4.23c-6.141-6.806-23.159-5.64-23.742,7.292c-7.78-3.014-13.809,3.792-9.919,10.501
			c-6.613-2.528-10.6,2.042-9.724,7.73c0.875,5.688,8.46,8.605,14.441,5.251c4.522,9.48,19.692,7.073,24.214,1.421
			c5.397,6.309,12.69,3.829,14.733,1.058c4.813,7.293,13.128,5.931,18.379,0.097c6.029,8.265,18.535,11.085,28.287,10.112
			C600,67.508,600,9.245,600,9.245z"/>
		<path style="fill:#FFFFFF;" d="M404.015,39.916c0,0,4.984-2.236,8.776,0c3.793,2.236,2.042,6.539,2.042,6.539
			s8.096-6.271,15.754-1.896c7.658,4.375,5.616,14.148,0.438,17.575c6.491,0.802,7.512,6.563,3.501,8.314
			c-4.011,1.75-11.232,1.021-11.232,1.021s-2.334,4.813-14.733,5.178c-12.399,0.365-22.828-4.23-22.828-4.23
			s-1.094,2.115-5.689,2.479c-4.595,0.365-8.242-1.969-8.242-1.969s-0.948,8.022-12.399,8.605
			c-11.451,0.583-13.566-8.751-13.566-8.751s-3.428,4.667-10.138,4.813c-6.71,0.146-9.19-4.959-9.19-4.959s-3.063,3.5-7.804,1.969
			c-4.011-1.24-3.866-5.542-3.866-5.542s-7.366,2.261-13.055,0.073c-5.689-2.188-6.199-12.106,2.99-11.158
			c-3.719-6.636,5.47-11.158,10.43-6.563c0.073-8.678,19.4-30.92,27.788-15.242c2.553-3.136,6.564-1.313,7.147,0
			c0.656-6.563,9.408-17.794,27.569-16.481C395.871,21.004,401.803,29.22,404.015,39.916z"/>
		<path style="fill:#D0F2FF;" d="M371.803,72.927c0,0,3.647,2.334,8.242,1.969c4.595-0.365,5.689-2.479,5.689-2.479
			s10.43,4.594,22.828,4.23c12.399-0.365,14.733-5.178,14.733-5.178s7.22,0.729,11.232-1.021c4.011-1.75,2.99-7.511-3.501-8.314
			c5.178-3.427,7.221-13.2-0.438-17.575c-1.385-0.792-2.785-1.231-4.148-1.426c5.692,6.083,3.345,14.042-4.093,14.625
			c-0.438,4.23-3.793,8.897-10.94,4.667c-5.981,9.626-23.631,7.73-28.444-0.583c-2.626,4.23-8.315,6.417-14.149,0.956
			c-5.689,13.208-21.005,8.232-24.36,0.794c-5.251,4.667-14.149,5.396-15.9-2.441c-2.48,4.559-12.107,5.65-12.69-0.913
			c-7.875,6.707-15.895,2.627-15.362-1.721c-4.518,2.066-3.302,8.854,1.285,10.618c5.689,2.188,13.055-0.073,13.055-0.073
			s-0.146,4.303,3.866,5.542c4.741,1.531,7.804-1.969,7.804-1.969s2.48,5.105,9.19,4.959c6.71-0.146,10.138-4.813,10.138-4.813
			s2.115,9.334,13.566,8.751C370.855,80.949,371.803,72.927,371.803,72.927z"/>
		<path style="fill:#D0F2FF;" d="M571.324,63.221c-4.57,7.575-15.754,7.01-18.282,0.787c-3.501,4.473-14.392,5.154-15.656-4.278
			c-4.473,7.195-15.267,10.404-19.643,3.209c-8.07,6.61-14.876,0.488-13.09-3.667c-3.49,0.764-5.328,4.24-4.706,8.285
			c0.875,5.688,8.46,8.605,14.441,5.251c4.522,9.48,19.692,7.073,24.214,1.421c5.397,6.309,12.69,3.829,14.733,1.058
			c4.813,7.293,13.128,5.931,18.379,0.097c6.029,8.265,18.535,11.085,28.287,10.112c0-3.072,0-7.32,0-12.251
			C590.691,73.829,577.159,70.911,571.324,63.221z"/>
	</g>
	<g>
		<g>
			<path style="fill:#8BAE2D;" d="M267.641,148.236c1.319,0.446,2.652,0.85,3.997,1.211c0.98,0.264,2.013,0.505,3,0.268
				c1.667-0.401,2.916-2.099,4.631-2.099c1.138,0,2.221,0.778,3.339,0.565c1.149-0.219,1.836-1.371,2.375-2.408
				c0.32-0.615,0.647-1.255,0.675-1.948c0.033-0.786-0.32-1.605-0.032-2.337c0.164-0.418,0.517-0.738,0.693-1.151
				c0.181-0.424,0.159-0.91,0.051-1.358c-0.376-1.558-1.849-2.782-3.45-2.867c-0.628-0.033-1.328,0.072-1.826-0.312
				c-0.468-0.361-0.569-1.009-0.724-1.58c-0.408-1.501-1.447-2.821-2.812-3.568c-1.062-0.582-2.529-0.758-3.382,0.102
				c-0.498,0.503-0.694,1.27-1.261,1.693c-1.31,0.976-3.225-0.622-4.76-0.063c-0.561,0.204-0.978,0.67-1.372,1.118
				c-0.534,0.61-1.069,1.219-1.604,1.829c-0.461,0.525-0.942,1.094-1.034,1.788c-0.058,0.439,0.049,0.882,0.171,1.307
				c0.326,1.138,0.768,2.242,1.317,3.29c0.542,1.035,1.189,2.019,1.636,3.098C267.719,145.896,267.958,147.112,267.641,148.236z"/>
		</g>
		<g>
			<path style="fill:#86A32B;" d="M256.567,147.785c-0.516-0.11-0.823-0.627-1.059-1.099c-0.346-0.693-0.676-1.411-0.767-2.18
				c-0.09-0.769,0.094-1.607,0.652-2.144c0.256-0.247,0.581-0.422,0.801-0.702c0.47-0.599,0.322-1.451,0.263-2.211
				c-0.194-2.529,1.257-5.336,3.73-5.902c0.664-0.152,1.473-0.083,1.863,0.475c0.204,0.293,0.252,0.664,0.399,0.989
				c0.383,0.845,1.521,1.246,2.349,0.828c0.469,0.482,0.521,1.215,0.679,1.868c0.157,0.653,0.584,1.374,1.256,1.384
				c0.851,0.013,1.239-1.062,1.265-1.913c0.025-0.851,0.029-1.884,0.766-2.309c0.747-0.431,1.663,0.108,2.352,0.626
				c1.019-0.62,1.254-2.039,2.17-2.804c0.911-0.762,2.366-0.655,3.284,0.098c0.918,0.754,1.317,2.022,1.199,3.204
				c-0.021,0.206-0.052,0.428,0.05,0.609c0.255,0.452,0.934,0.186,1.453,0.201c0.686,0.019,1.206,0.634,1.493,1.257
				c0.287,0.623,0.446,1.32,0.878,1.853c0.888,1.095,2.583,1.127,3.657,2.04c0.465,0.395,0.788,0.941,0.978,1.522
				c0.378,1.159,0.17,2.577-0.765,3.36c-0.996,0.834-2.441,0.739-3.739,0.675c-7.123-0.35-14.34,1.608-21.338,0.234
				c-0.875-0.172-1.782-0.395-2.647-0.175C257.383,147.672,256.976,147.872,256.567,147.785z"/>
		</g>
		<g>
			<path style="fill:#A2BF31;" d="M264.262,144.727c-1.075-0.412-2.368-0.915-2.579-2.046c-0.043-0.232-0.034-0.476-0.127-0.693
				c-0.172-0.4-0.643-0.587-1.078-0.605c-0.434-0.018-0.865,0.092-1.3,0.098c-1.066,0.013-2.035-0.623-2.674-1.494
				c0.048,0.602,0.052,1.211-0.309,1.672c-0.22,0.28-0.544,0.455-0.801,0.702c-0.558,0.537-0.743,1.375-0.652,2.144
				c0.09,0.769,0.421,1.487,0.767,2.18c0.236,0.472,0.543,0.989,1.059,1.099c0.409,0.087,0.816-0.113,1.221-0.216
				c0.865-0.22,1.771,0.003,2.647,0.175c2.638,0.518,5.306,0.563,7.989,0.436C267.761,146.51,265.992,145.39,264.262,144.727z"/>
		</g>
		<g>
			<path style="fill:#8BAE2D;" d="M281.45,145.018c-0.413-0.799-0.088-1.937-0.759-2.535c-0.835-0.744-2.292,0.144-3.233-0.46
				c-0.496-0.318-0.677-0.958-0.702-1.547c-0.025-0.589,0.066-1.186-0.055-1.763c-0.247-1.176-1.473-2.058-2.666-1.918
				c-1.193,0.14-2.182,1.281-2.15,2.482c0.017,0.656,0.212,1.504-0.366,1.817c-0.199,0.108-0.437,0.106-0.655,0.166
				c-0.976,0.27-1.166,1.574-1.015,2.575c0.223,1.476,0.776,2.898,1.596,4.145c3.441-0.272,6.895-0.639,10.327-0.471
				c0.535,0.026,1.095,0.057,1.638,0.027c-0.033-0.349-0.154-0.687-0.374-0.965C282.575,145.987,281.793,145.68,281.45,145.018z"/>
		</g>
	</g>
	<g>
		<g>
			<path style="fill:#86A32B;" d="M331.423,148.383c-1.291,0.521-2.599,1.001-3.921,1.439c-0.964,0.32-1.981,0.62-2.98,0.44
				c-1.688-0.304-3.032-1.927-4.744-1.829c-1.137,0.066-2.173,0.905-3.301,0.756c-1.159-0.153-1.911-1.263-2.51-2.268
				c-0.355-0.595-0.718-1.216-0.786-1.906c-0.078-0.783,0.227-1.62-0.102-2.335c-0.188-0.408-0.558-0.707-0.758-1.109
				c-0.205-0.413-0.211-0.899-0.129-1.353c0.286-1.577,1.686-2.884,3.279-3.061c0.625-0.069,1.33-0.005,1.806-0.416
				c0.447-0.387,0.51-1.04,0.632-1.619c0.321-1.522,1.283-2.899,2.602-3.724c1.027-0.642,2.481-0.903,3.382-0.093
				c0.526,0.473,0.766,1.228,1.356,1.617c1.364,0.899,3.184-0.807,4.749-0.336c0.571,0.172,1.015,0.613,1.434,1.038
				c0.569,0.578,1.138,1.156,1.706,1.734c0.49,0.498,1.004,1.038,1.135,1.725c0.083,0.435,0.002,0.883-0.095,1.315
				c-0.26,1.154-0.638,2.282-1.125,3.361c-0.481,1.065-1.07,2.084-1.455,3.187C331.212,146.051,331.043,147.278,331.423,148.383z"/>
		</g>
		<g>
			<path style="fill:#8BAE2D;" d="M349.379,145.56c-0.294-1.283-0.732-2.534-1.304-3.719c-0.514-1.064-1.304-2.189-2.48-2.304
				c-0.204-0.02-0.437-0.018-0.577-0.169c-0.134-0.145-0.122-0.367-0.115-0.565c0.027-0.862-0.481-1.916-1.342-1.858
				c-0.313,0.021-0.599,0.193-0.91,0.235c-0.733,0.099-1.381-0.557-1.603-1.262c-0.222-0.705-0.15-1.465-0.21-2.202
				c-0.06-0.737-0.306-1.535-0.941-1.915c-0.683-0.409-1.602-0.175-2.21,0.338c-0.608,0.513-0.974,1.25-1.324,1.964
				c-0.367,0.215-0.697-0.334-1.078-0.522c-0.613-0.303-1.248,0.406-1.463,1.055c-0.266,0.799-0.335,1.668-0.731,2.41
				c-0.396,0.742-1.299,1.331-2.068,0.988c-0.675-0.301-0.898-1.121-1.175-1.806c-0.276-0.685-0.914-1.416-1.617-1.19
				c-0.644,0.207-0.913,1.124-1.585,1.199c-0.493,0.055-0.9-0.396-1.092-0.853c-0.192-0.457-0.272-0.973-0.576-1.365
				c-0.384-0.495-1.072-0.689-1.691-0.591c-0.619,0.098-1.173,0.449-1.633,0.874c-1.183,1.092-1.834,2.735-1.72,4.341
				c0.061,0.864,0.228,1.957-0.52,2.394c-0.495,0.289-1.172,0.101-1.655,0.411c-0.514,0.33-0.569,1.05-0.532,1.659
				c0.123,2.01,0.76,4.149,2.388,5.335l28.196,1.081c0.818-0.292,1.469-1.012,1.675-1.856
				C349.653,146.979,349.537,146.253,349.379,145.56z"/>
		</g>
		<g>
			<path style="fill:#A2BF31;" d="M328.535,146.802c-0.948-0.152-1.927-0.006-2.871-0.183c-0.421-0.079-0.846-0.232-1.141-0.542
				c-0.466-0.49-0.5-1.247-0.409-1.916c0.142-1.039,0.522-2.045,1.103-2.919c0.246-0.37,0.543-0.786,0.434-1.217
				c-0.137-0.543-0.818-0.727-1.379-0.713c-0.56,0.014-1.177,0.111-1.633-0.214c-0.59-0.421-0.57-1.299-0.408-2.005
				c0.304-1.322,0.895-2.577,1.717-3.656c-0.219-0.039-0.446-0.042-0.665-0.008c-0.619,0.098-1.173,0.449-1.633,0.874
				c-1.183,1.092-1.834,2.735-1.72,4.341c0.061,0.864,0.228,1.957-0.52,2.394c-0.495,0.289-1.172,0.101-1.655,0.411
				c-0.514,0.33-0.569,1.05-0.532,1.659c0.123,2.01,0.76,4.149,2.388,5.335l10.692,0.41c0.204-0.222,0.316-0.356,0.316-0.356
				C330.485,147.547,329.483,146.953,328.535,146.802z"/>
		</g>
		<g>
			<path style="fill:#86A32B;" d="M338.24,135.127c-0.167,0.73-0.587,1.374-0.852,2.075c-0.265,0.701-0.35,1.554,0.109,2.146
				c0.783,1.01,2.585,0.637,3.381,1.638c0.458,0.576,0.464,1.492,1.085,1.888c0.702,0.447,1.682-0.096,2.443,0.241
				c0.676,0.299,0.886,1.138,1.014,1.865c0.099,0.563,0.198,1.139,0.103,1.703c-0.095,0.564-0.423,1.123-0.953,1.336l-1.64,1.32
				l4.877,0.187c0.818-0.292,1.469-1.012,1.675-1.856c0.169-0.69,0.053-1.417-0.105-2.109c-0.294-1.283-0.732-2.534-1.304-3.719
				c-0.514-1.064-1.304-2.189-2.48-2.304c-0.204-0.02-0.437-0.018-0.577-0.169c-0.134-0.145-0.122-0.367-0.115-0.565
				c0.027-0.862-0.481-1.916-1.342-1.858c-0.313,0.021-0.599,0.193-0.91,0.235c-0.733,0.099-1.381-0.557-1.603-1.262
				c-0.222-0.705-0.15-1.465-0.21-2.202c-0.06-0.737-0.306-1.535-0.941-1.915c-0.683-0.409-1.602-0.175-2.21,0.338
				c-0.068,0.058-0.133,0.119-0.195,0.182C338.155,133.073,338.465,134.145,338.24,135.127z"/>
		</g>
	</g>
	<g>
		<rect x="297.744" y="138.4" style="fill:#A1AAB7;" width="17.641" height="9.7"/>
		<rect x="284.312" y="138.4" style="fill:#FFFFFF;" width="13.432" height="9.7"/>
		<polygon style="fill:#AF5960;" points="290.638,132.153 283.51,138.463 297.766,138.463 		"/>
		<polygon style="fill:#994044;" points="290.638,132.153 309.362,132.153 316.49,138.463 297.766,138.463 		"/>
		<rect x="289.492" y="141.076" style="fill:#473634;" width="3.072" height="3.171"/>
		<rect x="302.005" y="141.076" style="fill:#473634;" width="3.072" height="3.171"/>
		<rect x="309.042" y="141.076" style="fill:#473634;" width="3.072" height="3.171"/>
	</g>
	<path style="fill:#A2BF31;" d="M160.207,149.906c45.234-4.2,88.054-3.289,118.395-3.289c30.341,0,100.714,5.312,126.387,5.118
		C430.661,151.54,600,143.371,600,143.371V226.8c0,0-275.648,5.071-351.643-18.525C172.362,184.678,160.207,149.906,160.207,149.906
		z"/>
	<g>
		<path style="fill:#8BAE2D;" d="M225.481,164.6c48.779,1.496,97.558,2.992,146.336,4.487c11.477,0.352,22.964,0.704,34.44,0.322
			c13.991-0.466,27.937-2.022,41.935-2.214c23.37-0.32,46.6,3.161,69.876,5.278c28.978,2.635,52.571,3.157,81.625,1.56v17.807
			c0,0-116.607,31.988-175.51,34.893C365.28,229.639,225.481,164.6,225.481,164.6z"/>
	</g>
	<path style="fill:#E3CE2C;" d="M0,276.518c0,0,164.923,8.654,287.759-6.934c122.836-15.588,165.618-62.465,165.618-62.465
		c-33.881,2.198-61.808-3.365-113.154-15.033c-50.05-11.374-110.568-30.337-155.951-38.505
		c-45.383-8.168-108.732-10.693-146.366-10.793C11.042,142.718,0,143.371,0,143.371V276.518z"/>
	<path style="fill:#E6D330;" d="M37.597,164.356c24.293-2.334,114.909,9.242,191.451,30.574
		c38.304,10.675,114.321,29.527,166.332,32.447c27.165,1.525,25.995,22.228-5.978,29.921c0,0-41.87,9.517-157.243,15.745
		c-115.373,6.227-231.74-2.465-231.74-2.465V186.35L37.597,164.356z"/>
	<g>
		<g>
			<path style="fill:#548600;" d="M178.883,211.551c-0.335-5.013-2.669-10.183-7.08-12.588c1.575-2.953-0.408-7.161-3.687-7.828
				c0.954-2.329,1.202-5.763-0.884-7.17c-4.403-2.971-10.92,0.154-14.807,3.774c-0.122-3.901-2.511-7.65-5.997-9.408
				c-3.485-1.758-7.921-1.452-11.131,0.768c0.144-2.93,0.21-6.13-1.558-8.47c-1.884-2.494-5.423-3.254-8.489-2.647
				c-3.066,0.607-5.776,2.337-8.379,4.068c-3.781-4.89-12.126-5.19-16.249-0.584c-0.796-3.594-1.672-7.351-4.089-10.128
				c-2.417-2.776-6.9-4.127-9.851-1.926c-2.171-3.436-7.407-4.423-10.681-2.015c-0.393-4.512-5.929-7.141-10.315-6.008
				c-4.386,1.133-7.622,4.815-10.12,8.594c-0.946-2.178-4.124-2.976-5.986-1.502c-0.418,0.331-0.792,0.761-1.308,0.896
				c-1.74,0.458-2.206-2.232-2.423-4.018c-0.438-3.604-3.782-6.478-7.391-6.878c-3.609-0.4-7.252,1.4-9.587,4.181
				c-1.665,1.984-3.093,4.66-5.659,5.013c-3.584,0.493-6.012-3.935-9.569-4.597c-2.83-0.527-5.495,1.469-7.421,3.608
				C4.297,158.826,2.674,161.336,0,162.4v37.071l176.541,26.894C177.873,221.52,179.218,216.564,178.883,211.551z"/>
		</g>
		<g>
			<g>
				<path style="fill:#3D6F03;" d="M172.805,208.917c-0.013-0.361-0.046-0.721-0.114-1.076c-0.397-2.101-1.906-3.822-2.566-5.856
					c-0.178-0.55-0.294-1.121-0.526-1.65c-0.43-0.981-1.485-2.511-2.547-2.873c-0.751-0.256-1.649,0.002-2.15,0.617
					c-1.146,1.407,0.027,3.692-0.885,5.262c-0.771,1.328-2.574,1.481-4.053,1.893c-1.674,0.467-3.169,1.433-4.818,1.981
					c-1.649,0.548-3.66,0.59-4.926-0.602c-0.444-0.418-0.772-1.003-0.729-1.611c0.029-0.402,0.215-0.775,0.397-1.134
					c0.801-1.58,1.604-3.165,2.599-4.631c0.49-0.721,1.028-1.418,1.384-2.214c1.233-2.754-0.072-6.148-2.385-8.086
					c-0.405-0.339-0.896-0.661-1.419-0.59c-0.915,0.123-1.239,1.255-1.394,2.166c-0.221,1.299-0.527,2.61-1.206,3.739
					c-0.908,1.511-2.421,2.579-4.037,3.285c-1.615,0.706-3.349,1.087-5.06,1.515c-0.95,0.237-1.916,0.492-2.893,0.429
					c-0.977-0.063-1.987-0.506-2.467-1.359c-0.587-1.043,0.083-1.938,0.539-2.849c0.507-1.013,1.684-1.128,2.555-1.7
					c1.048-0.689,1.477-2.059,1.377-3.309c-0.099-1.25-0.637-2.417-1.166-3.554c-1.255-2.695-2.509-5.391-3.764-8.086
					c-0.223-0.48-0.47-0.987-0.92-1.266c-0.533-0.33-1.246-0.25-1.787,0.064c-0.542,0.314-0.939,0.827-1.269,1.36
					c-0.267,0.431-0.511,0.896-0.913,1.206c-0.319,0.246-0.712,0.373-1.102,0.475c-2.402,0.623-4.932,0.406-7.403,0.185
					c-0.518-0.046-1.111-0.137-1.384-0.579c-0.442-0.714,0.323-1.664,0.053-2.46c-0.278-0.823-1.517-0.895-2.193-0.35
					c-0.677,0.545-0.952,1.43-1.271,2.239c-0.667,1.694-1.654,3.235-2.671,4.737c-0.715,1.056-1.497,2.747-2.728,3.254
					c-1.637,0.673-3.594,0.541-5.321,0.467c-1.332-0.058-3.036-0.431-3.222-1.751c-0.211-1.502,1.764-2.282,2.524-3.595
					c0.945-1.635-0.181-3.65-1.272-5.191c-0.998-1.409-1.995-2.817-2.993-4.226c-0.163-0.23-0.353-0.479-0.63-0.533
					c-0.313-0.061-0.614,0.151-0.831,0.385c-1.282,1.381-1.042,3.525-1.407,5.372c-0.729,3.689-4.488,6.516-8.234,6.192
					c-0.828-0.071-1.658-0.277-2.481-0.161c-0.51,0.072-0.995,0.265-1.501,0.36c-2.304,0.435-4.623-1.349-5.357-3.575
					c-0.734-2.227-0.165-4.703,0.909-6.787c0.642-1.245,1.468-2.421,1.801-3.781c0.333-1.36,0.016-3.019-1.186-3.737
					c-0.239-0.143-0.513-0.252-0.673-0.479c-0.206-0.293-0.16-0.685-0.134-1.042c0.165-2.245-0.896-4.542-2.711-5.873
					c-0.174-0.128-0.361-0.25-0.573-0.293c-0.604-0.124-1.16,0.455-1.285,1.059c-0.125,0.604,0.042,1.224,0.124,1.835
					c0.404,2.986-1.215,5.859-3.023,8.27c-2.259,3.011-5.046,5.814-8.595,7.07c-2.025,0.716-4.215,0.899-6.209,1.696
					c-1.168,0.467-2.29,1.15-3.545,1.241c-2.04,0.149-3.822-1.272-5.368-2.61c-1.038-0.898-2.181-2.091-1.872-3.428
					c0.316-1.372,1.947-1.948,2.803-3.066c0.866-1.13,0.799-2.874-0.15-3.934c-0.629-0.703-1.549-1.087-2.196-1.774
					c-1.287-1.367-1.33-3.741-2.935-4.716c-0.332-0.202-0.749-0.324-1.109-0.177c-0.714,0.291-0.682,1.29-0.608,2.057
					c0.282,2.919-0.733,5.915-2.643,8.126c-0.469,0.543-1.123,0.951-1.566,1.498c-0.355,0.438-0.542,0.994-0.886,1.456
					c-0.943,1.269-2.16,2.332-3.495,3.171c-2.596,1.63-5.591,2.484-8.541,3.319c-0.599,0.17-1.236,0.34-1.836,0.171
					c-1.402-0.394-1.689-2.349-1.117-3.689c0.571-1.34,1.678-2.406,2.19-3.769c0.874-2.327-0.159-4.893-1.177-7.161
					c-0.673-1.5-1.525-3.162-3.104-3.621c-2.037-0.592-4.062,1.26-4.728,3.274c-0.666,2.014-0.467,4.208-0.858,6.293
					c-1.141,6.096-7.965,10.421-13.946,8.775l0.419,43.849h165.592c2.322-1.262,4.154-3.317,5.298-5.686
					c1.27-2.63,1.28-5.242,1.447-8.083C172.792,210.099,172.826,209.505,172.805,208.917z"/>
			</g>
		</g>
		<g>
			<path style="fill:#2E5D00;" d="M4.369,189.897c4.863,0.726,9.996-0.555,13.947-3.482c2.266-1.678,4.772-4.019,7.462-3.17
				c3.253,1.028,4.085,6.119,7.459,6.621c0.997,0.148,2.001-0.17,2.939-0.538c4.233-1.66,7.576-3.968,9.936-7.945
				c0.404-0.68,0.866-1.46,1.644-1.603c0.288-0.053,0.586-0.007,0.866,0.078c0.897,0.274,1.655,0.973,1.999,1.845
				c0.48,1.217,0.348,2.915,1.536,3.461c0.807,0.371,1.829-0.062,2.611,0.36c0.342,0.184,0.584,0.507,0.807,0.825
				c0.459,0.655,0.885,1.331,1.277,2.028c0.837,1.486,1.77,3.425,3.708,3.604c1.261,0.116,2.182-0.936,3.394-1.143
				c3.165-0.54,6.634-0.1,8.815-3.038c1.088-1.465,1.636-3.626,3.395-4.113c1.543-0.428,3.139,0.873,3.618,2.401
				c0.48,1.528,0.146,3.179-0.207,4.741c1.909,3.348,6.166,4.785,10.003,4.413c2.587-0.251,5.588-2.37,8.028-2.015
				c2.997,0.436,7.101,3.845,9.793,5.3c1.226,0.663,2.651,1.343,3.955,0.852c1.903-0.716,2.797-3.67,4.812-3.397
				c1.221,0.165,1.875,1.466,2.531,2.51c1.815,2.888,5.16,4.749,8.571,4.77c2.546,0.016,4.99-0.914,7.477-1.46
				c2.487-0.546,5.291-0.648,7.369,0.823c1.948,1.38,2.573,3.791,4.275,5.341c0.798,0.726,1.378,1.637,2.254,2.297
				c0.923,0.696,2.011,1.177,3.153,1.364c1.197,0.197,2.421,0.087,3.626-0.051c3.926-0.451,7.818-1.204,11.628-2.251
				c0.21-0.058,0.429-0.117,0.642-0.071c0.296,0.064,0.51,0.314,0.69,0.558c0.576,0.78,1.03,1.641,1.566,2.449
				c1.423,2.143,3.432,3.892,5.749,5.007c0.638,0.307,1.31,0.574,1.84,1.043c0.53,0.469,0.896,1.204,0.703,1.884
				c-0.065,0.229-0.189,0.44-0.238,0.674c-0.196,0.949,0.808,1.641,1.257,2.346c0.532,0.835,1.15,1.683,1.501,2.617
				c0.699,1.861,0.251,4.316-1.508,5.243L3.625,212.553L4.369,189.897z"/>
		</g>
		<g>
			<path style="fill:#548600;" d="M243.972,227.051c-0.262-0.843-0.876-1.532-1.212-2.348c-1.18-2.865,1.238-6.609-0.662-9.055
				c-0.958-1.233-2.792-1.708-3.395-3.148c-0.315-0.752-0.211-1.603-0.24-2.418c-0.11-3.099-2.443-5.987-5.449-6.748
				c-0.603-0.152-1.295-0.272-1.636-0.792c-0.194-0.296-0.229-0.665-0.263-1.017c-0.225-2.321-0.69-4.712-2.066-6.595
				c-1.376-1.883-3.874-3.114-6.092-2.392c-0.885,0.288-1.684,0.862-2.609,0.961c-2.418,0.259-4.293-2.748-6.706-2.447
				c-2.508,0.313-4.064,4.061-6.488,3.346c-1.372-0.405-1.9-2.027-2.855-3.092c-1.693-1.887-4.794-1.864-7.015-0.641
				c-3.216,1.771-4.961,5.477-5.414,9.119c-0.453,3.643,0.176,7.32,0.59,10.967c0.101,0.888,0.042,2.034-0.795,2.347
				c-0.425,0.159-0.896,0.022-1.349-0.014c-2.206-0.178-3.929,2.205-3.907,4.418s1.243,4.213,2.426,6.085l49.625,14.85
				c1.373-2.168,2.746-4.336,4.119-6.504C243.516,230.456,244.492,228.722,243.972,227.051z"/>
		</g>
		<g>
			<path style="fill:#3D6F03;" d="M195.717,225.598c-1.887-2.592-0.274-6.899,2.853-7.613c1.299-0.297,2.717-0.063,3.931-0.611
				c1.117-0.505,1.854-1.582,2.453-2.651c1.771-3.159,2.842-6.708,3.113-10.32c0.092-1.227,0.132-2.564,0.924-3.506
				c1.305-1.551,3.98-1.042,5.354,0.449c1.374,1.491,1.825,3.581,2.342,5.541c0.516,1.96,1.256,4.038,2.941,5.165
				c1.627,1.088,2.83,2.797,2.982,4.88c0.083,1.13-0.491,2.389-1.571,2.732c-0.246,0.078-0.508,0.108-0.742,0.217
				c-0.412,0.193-0.675,0.605-0.876,1.013c-0.36,0.733-0.579,1.661-0.109,2.329c0.344,0.489,0.959,0.694,1.535,0.852
				c1.177,0.323,2.399,0.576,3.611,0.441c2.432-0.271,3.329-2.177,4.305-4.147c1.088-2.195,1.205-4.782,0.81-7.165
				c-0.083-0.503-0.165-1.088,0.184-1.459c0.493-0.524,1.368-0.176,1.959,0.236c4.489,3.132,7.21,8.644,6.965,14.112
				c-0.245,5.468-3.446,10.715-8.197,13.435L195.717,225.598z"/>
		</g>
		<g>
			<path style="fill:#2E5D00;" d="M203.553,225.85c0.81-0.444,1.62-0.887,2.429-1.331c0.589-0.323,1.218-0.688,1.481-1.305
				c0.193-0.453,0.155-0.97,0.269-1.449c0.239-1.008,1.108-1.73,1.964-2.313c0.762-0.519,1.615-1.007,2.537-0.982
				c1.54,0.042,2.644,1.444,3.516,2.713c1.867,2.716,3.267,5.359,6.314,6.846c2.526,1.233,5.524,1.563,8.219,0.703
				c0.772-0.247,1.532-0.581,2.341-0.63c0.809-0.048,1.711,0.273,2.057,1.006c0.223,0.471,0.179,1.02,0.123,1.538
				c-0.327,2.999-1.141,6.288-3.661,7.946L203.553,225.85z"/>
		</g>
	</g>
	<g>
		<g>
			<path style="fill:#463939;" d="M523.97,190.213c0-3.89-0.44-7.212-0.59-10.732c-0.851,0.566-1.893,0.841-2.912,0.767
				c0.285,3.656,0.388,7.326,0.31,10.992C522.133,190.804,522.615,190.649,523.97,190.213z"/>
		</g>
		<path style="fill:#463939;" d="M496.964,196.855c-0.503-3.418-0.827-6.901-0.964-10.352l1.458-0.058
			c0.135,3.4,0.454,6.831,0.95,10.198L496.964,196.855z"/>
		<path style="fill:#463939;" d="M497.325,192.575c-0.055,0-0.113-0.007-0.172-0.026c-0.151-0.048-0.271-0.159-0.331-0.306
			l0.812-0.327c-0.038-0.095-0.12-0.171-0.218-0.202c-0.074-0.024-0.138-0.014-0.158-0.001c2.047-1.325,3.378-3.755,3.391-6.193
			l0.875,0.005c-0.015,2.725-1.502,5.442-3.79,6.923C497.681,192.482,497.519,192.575,497.325,192.575z"/>
		<path style="fill:#463939;" d="M549.629,191.312c-0.014-3.938-0.365-7.901-1.044-11.78l2.011-0.352
			c0.7,3.993,1.061,8.072,1.075,12.125L549.629,191.312z"/>
		<path style="fill:#463939;" d="M570.447,186.061l-1.991-0.456c0.673-2.94,0.924-5.958,0.747-8.969l2.039-0.12
			C571.431,179.72,571.163,182.932,570.447,186.061z"/>
		<path style="fill:#463939;" d="M586.537,184.847l-2.042-0.03c0.036-2.503-0.12-5.03-0.465-7.51l2.023-0.281
			C586.412,179.609,586.576,182.24,586.537,184.847z"/>
		<g>
			<path style="fill:#47802F;" d="M593.36,164.238c-0.557-2.004,0.272-4.144,0.021-6.209c-0.383-3.154-3.106-5.42-4.754-8.136
				c-0.521-0.858-0.948-1.789-1.642-2.514c-1.472-1.542-4.099-1.799-5.842-0.572c-1.811,1.275-2.415,3.626-3.108,5.729
				c-1.784,5.422-4.977,10.491-5.365,16.186c-0.086,1.254-0.031,2.514,0.023,3.769c0.019,0.436,0.04,0.882,0.195,1.29
				c0.188,0.494,0.56,0.894,0.937,1.264c1.951,1.913,4.36,3.412,7.022,4.031c2.662,0.618,5.583,0.303,7.915-1.122
				c0.752-0.459,1.433-1.024,2.106-1.592c1.316-1.112,2.664-2.319,3.248-3.94c0.356-0.988,0.398-2.058,0.385-3.108
				c-0.014-1.079-0.086-2.173-0.431-3.196C593.856,165.484,593.539,164.885,593.36,164.238z"/>
		</g>
		<g>
			<path style="fill:#3D7525;" d="M594.117,172.423c0.356-0.988,0.398-2.058,0.385-3.108c-0.014-1.079-0.086-2.173-0.431-3.196
				c-0.214-0.635-0.532-1.235-0.711-1.881c-0.557-2.004,0.272-4.144,0.021-6.209c-0.258-2.123-1.576-3.844-2.913-5.571
				c0.104,0.711,0.176,1.426,0.207,2.146c0.133,3.096-0.53,6.305-2.349,8.814c-0.239,0.329-0.498,0.649-0.662,1.021
				c-0.903,2.046,1.415,4.391,0.719,6.517c-0.485,1.482-2.193,2.133-3.715,2.475c-0.925,0.208-1.861,0.375-2.806,0.462
				c-3.145,0.29-6.367-0.332-9.183-1.76c0.005,0.12,0.009,0.24,0.015,0.359c0.019,0.436,0.04,0.882,0.195,1.29
				c0.188,0.494,0.56,0.894,0.937,1.264c1.951,1.913,4.36,3.412,7.022,4.031c2.662,0.618,5.583,0.303,7.915-1.122
				c0.752-0.459,1.433-1.024,2.106-1.592C592.186,175.251,593.534,174.044,594.117,172.423z"/>
		</g>
		<g>
			<path style="fill:#47802F;" d="M487.912,174.912c1.08-3.884,1.707-8.106,4.32-11.176c1.454-1.707,3.507-2.944,5.733-3.218
				c2.226-0.274,4.6,0.481,6.114,2.136c0.68,0.743,1.173,1.636,1.596,2.549c1.654,3.57,2.304,7.529,2.541,11.457
				c0.105,1.735,0.13,3.496-0.255,5.191c-0.385,1.695-1.218,3.336-2.577,4.421c-1.85,1.476-4.361,1.729-6.572,2.575
				c-1.797,0.688-3.582,1.814-5.486,1.533c-1.842-0.272-3.219-1.787-4.375-3.247c-0.765-0.965-1.517-1.966-1.945-3.12
				c-0.54-1.456-0.528-3.066-0.268-4.597C486.998,177.886,487.496,176.408,487.912,174.912z"/>
		</g>
		<g>
			<path style="fill:#3D7525;" d="M508.215,176.66c-0.237-3.928-0.887-7.886-2.541-11.457c-0.423-0.914-0.917-1.807-1.596-2.549
				c-0.744-0.813-1.695-1.407-2.734-1.771c0.292,0.786,0.482,1.61,0.546,2.446c0.102,1.331-0.093,2.67-0.022,4.003
				c0.093,1.736,0.622,3.551-0.037,5.16c-0.622,1.52-2.204,2.541-2.631,4.127c-0.254,0.944-0.056,1.961-0.28,2.913
				c-0.408,1.738-2.109,2.865-3.797,3.447c-2.707,0.933-5.728,0.877-8.423-0.08c0.071,0.379,0.171,0.751,0.306,1.115
				c0.428,1.154,1.181,2.156,1.945,3.12c1.156,1.46,2.533,2.975,4.375,3.247c1.904,0.281,3.689-0.845,5.486-1.533
				c2.211-0.846,4.722-1.099,6.572-2.575c1.359-1.084,2.191-2.725,2.577-4.421C508.345,180.156,508.32,178.395,508.215,176.66z"/>
		</g>
		<g>
			<path style="fill:#47802F;" d="M512.748,162.447c0.176-1.282,0.214-2.603,0.675-3.812c0.31-0.812,0.8-1.544,1.343-2.221
				c0.639-0.797,1.398-1.557,2.367-1.879c1.005-0.334,2.118-0.153,3.102,0.238c0.984,0.391,1.874,0.981,2.799,1.496
				c0.759,0.423,1.545,0.797,2.294,1.237c4.587,2.695,7.465,7.724,8.528,12.936c0.173,0.85,0.304,1.722,0.208,2.584
				c-0.098,0.878-0.428,1.71-0.755,2.531c-0.532,1.336-1.092,2.714-2.122,3.718c-0.748,0.729-1.699,1.213-2.657,1.63
				c-5.149,2.238-11.006,2.811-16.491,1.613c-0.564-0.123-1.127-0.266-1.656-0.496c-1.652-0.721-2.861-2.305-3.271-4.059
				c-0.41-1.755-0.058-3.646,0.819-5.22c0.522-0.937,1.217-1.764,1.83-2.645C511.341,167.83,512.373,165.184,512.748,162.447z"/>
		</g>
		<g>
			<path style="fill:#3D7525;" d="M525.329,157.506c-0.749-0.44-1.535-0.814-2.295-1.237c-0.511-0.285-1.012-0.591-1.523-0.875
				c1.193,1.964,2.297,3.983,3.301,6.05c0.634,1.305,1.237,2.652,1.438,4.09c0.2,1.437-0.047,2.995-0.966,4.119
				c-0.455,0.557-1.051,0.983-1.535,1.516c-1.004,1.105-1.466,2.588-2.254,3.856c-1.398,2.249-3.794,3.736-6.318,4.539
				c-2.154,0.686-4.418,0.923-6.679,1.073c0.523,0.589,1.162,1.07,1.885,1.385c0.529,0.231,1.092,0.373,1.656,0.496
				c5.485,1.198,11.343,0.625,16.491-1.613c0.958-0.417,1.909-0.9,2.657-1.63c1.03-1.004,1.59-2.382,2.122-3.718
				c0.327-0.82,0.657-1.653,0.755-2.531c0.097-0.862-0.034-1.734-0.208-2.584C532.794,165.229,529.917,160.2,525.329,157.506z"/>
		</g>
		<g>
			<path style="fill:#47802F;" d="M543.405,162.276c0.634-1.744,1.224-3.578,2.493-4.932c1.079-1.151,2.612-1.865,4.188-1.949
				c1.576-0.084,3.176,0.463,4.371,1.493c0.659,0.568,1.191,1.269,1.66,2.002c2.199,3.436,3.046,7.553,3.553,11.6
				c0.213,1.701,0.373,3.432,0.095,5.124c-0.278,1.692-1.04,3.361-2.385,4.425c-1.738,1.374-4.117,1.533-6.332,1.558
				c-0.386,0.004-0.777,0.007-1.151,0.1c-0.382,0.094-0.734,0.279-1.087,0.451c-1.187,0.578-2.449,1.041-3.764,1.168
				c-1.315,0.127-2.691-0.103-3.801-0.818c-0.329-0.212-0.634-0.466-0.88-0.771c-0.518-0.641-0.747-1.467-0.888-2.279
				c-0.509-2.931-0.025-5.956,0.833-8.804C541.164,167.794,542.388,165.071,543.405,162.276z"/>
		</g>
		<g>
			<path style="fill:#3D7525;" d="M556.116,158.889c-0.469-0.733-1.001-1.434-1.66-2.002c-0.387-0.333-0.819-0.61-1.276-0.837
				c0.246,1.147,0.327,2.325,0.57,3.474c0.253,1.195,0.683,2.355,0.817,3.57c0.208,1.887-0.341,3.847-1.501,5.351
				c-0.446,0.579-0.977,1.091-1.399,1.687c-1.175,1.662-1.42,3.851-2.618,5.496c-1.24,1.703-3.406,2.6-5.513,2.575
				c-1.49-0.017-2.945-0.456-4.269-1.153c0.005,0.802,0.068,1.603,0.205,2.397c0.141,0.812,0.371,1.637,0.888,2.279
				c0.246,0.305,0.551,0.559,0.88,0.771c1.11,0.715,2.487,0.945,3.801,0.818c1.315-0.127,2.577-0.589,3.764-1.168
				c0.354-0.172,0.706-0.356,1.087-0.451c0.375-0.093,0.765-0.095,1.151-0.1c2.215-0.025,4.594-0.184,6.332-1.558
				c1.345-1.063,2.107-2.733,2.385-4.425c0.278-1.692,0.118-3.423-0.095-5.124C559.162,166.443,558.315,162.325,556.116,158.889z"/>
		</g>
		<g>
			<path style="fill:#47802F;" d="M569.732,148.598c1.433,0.063,2.753,0.763,3.992,1.485c1.117,0.651,2.226,1.342,3.14,2.256
				c0.7,0.701,1.271,1.519,1.838,2.331c1.665,2.389,3.37,4.87,3.923,7.728c0.19,0.985,0.238,1.992,0.241,2.995
				c0.003,1.137-0.052,2.286-0.352,3.383c-0.382,1.399-1.145,2.658-1.9,3.896c-0.461,0.755-0.928,1.518-1.552,2.147
				c-1.367,1.378-3.327,1.963-5.217,2.407c-2.555,0.601-5.148,1.039-7.759,1.311c-0.574,0.06-1.156,0.111-1.726,0.018
				c-1.044-0.171-1.949-0.812-2.739-1.515c-0.811-0.721-1.562-1.549-1.975-2.553c-0.307-0.746-0.415-1.561-0.429-2.368
				c-0.066-3.959,2.057-7.653,2.372-11.6c0.132-1.655-0.057-3.336,0.235-4.971c0.538-3.011,2.82-5.646,5.725-6.608
				C568.251,148.707,568.991,148.565,569.732,148.598z"/>
		</g>
		<g>
			<path style="fill:#3D7525;" d="M582.624,162.398c-0.553-2.859-2.258-5.34-3.923-7.728c-0.567-0.813-1.137-1.63-1.838-2.331
				c-0.903-0.903-1.997-1.589-3.101-2.233c1.354,2.446,2.202,5.174,2.446,7.959c0.069,0.785,0.092,1.576,0.253,2.347
				c0.286,1.366,0.991,2.604,1.462,3.918c0.471,1.314,0.69,2.837,0.022,4.062c-0.693,1.269-2.147,1.898-3.526,2.334
				c-0.985,0.311-1.987,0.571-3,0.777c-0.668,0.136-1.355,0.254-1.951,0.585c-0.516,0.287-0.934,0.718-1.397,1.083
				c-1.495,1.181-3.449,1.659-5.354,1.689c-1.01,0.016-2.014-0.086-3.013-0.241c0.423,0.944,1.139,1.732,1.914,2.421
				c0.791,0.703,1.695,1.344,2.739,1.515c0.57,0.093,1.152,0.042,1.726-0.018c2.611-0.272,5.204-0.71,7.759-1.311
				c1.89-0.444,3.849-1.029,5.217-2.407c0.623-0.628,1.091-1.391,1.552-2.147c0.755-1.238,1.518-2.497,1.9-3.896
				c0.3-1.097,0.355-2.246,0.352-3.383C582.862,164.39,582.815,163.383,582.624,162.398z"/>
		</g>
	</g>
	<path style="fill:#74A700;" d="M330.637,242.706c-19.212,0.446-89.313-7.739-151.161-23.782
		c-61.848-16.044-114.944-30.045-141.571-30.337c0,0-24.456-1.463-37.905,1.844c0,13.52,0,47.622,0,77.454
		C245.672,290.293,330.637,242.706,330.637,242.706z"/>
	<g>
		<path style="fill:#548601;" d="M600,163.532c-1.129-3.059-3.406-5.809-5.969-7.828c-1.034-0.814-2.182-1.536-2.933-2.617
			c-1.494-2.147-1.042-5.088-1.975-7.531c-0.885-2.316-3.102-4.067-5.561-4.391c-2.458-0.324-5.054,0.793-6.509,2.801
			c-1.012,1.397-1.768,3.362-3.477,3.596c-2.516,0.344-3.875-3.448-6.405-3.668c-3.528-0.307-4.055,5.892-7.463,6.857
			c-0.466,0.132-0.976,0.157-1.383,0.42c-0.74,0.477-0.851,1.524-1.435,2.184c-0.806,0.912-2.299,0.827-3.372,0.254
			c-1.074-0.573-1.896-1.517-2.881-2.232c-2.843-2.063-7.596-1.548-9.069,1.641c-0.935,2.023-0.908,5.117-3.098,5.534
			c-0.979,0.186-1.928-0.352-2.869-0.682c-0.94-0.33-2.197-0.352-2.709,0.503c-0.227,0.38-0.245,0.845-0.38,1.267
			c-0.652,2.041-3.75,2.136-5.383,0.748c-1.633-1.387-2.294-3.567-3.271-5.474c-1.496-2.918-4.029-5.444-7.206-6.258
			c-3.176-0.814-6.955,0.439-8.489,3.337c-0.509,0.961-0.787,2.085-1.575,2.835c-1.342,1.276-3.569,0.909-5.176-0.01
			c-1.607-0.919-2.955-2.294-4.679-2.969c-3.852-1.508-8.322,1.104-10.345,4.712c-2.023,3.607-2.231,7.915-2.453,12.045
			s-0.57,8.458-2.809,11.936c-1.144,1.778-2.801,3.402-2.982,5.509c-0.177,2.063,1.128,3.927,2.369,5.585
			c1.183,1.581,4.202,6.295,5.385,7.875L600,183.168V174.6V163.532z"/>
		<path style="fill:#3D6F03;" d="M600,170.197c-1.101-2.946-3.391-5.569-5.992-7.341c-1.85-1.26-4.627-1.985-6.131-0.328
			c-1.723,1.898-0.74,5.882-3.185,6.65c-2.009,0.631-3.554-2.095-3.203-4.171c0.351-2.076,1.662-3.962,1.649-6.067
			c-0.012-1.943-1.187-3.731-2.701-4.949c-1.514-1.218-3.346-1.96-5.148-2.685c-0.912-0.367-2.111-0.673-2.751,0.074
			c-0.346,0.404-0.382,0.986-0.34,1.516c0.216,2.719,1.904,5.801,0.157,7.896c-0.442,0.53-1.05,0.892-1.539,1.378
			c-1.084,1.077-1.481,2.64-2.06,4.054c-0.591,1.444-1.451,2.837-2.754,3.696c-1.302,0.859-3.112,1.071-4.412,0.209
			c-1.27-0.842-1.768-2.425-2.336-3.838c-1.877-4.664-5.464-8.618-9.924-10.939c-1.484-0.772-3.977-0.882-4.168,0.78
			c-0.053,0.462,0.128,0.916,0.308,1.345c0.997,2.382,2.07,4.772,2.441,7.327c0.371,2.555-0.056,5.356-1.763,7.293
			c-1.954,2.218-5.134,2.872-8.088,2.985c-0.69,0.026-1.426,0.018-2.005-0.358c-1.307-0.848-0.975-2.793-1.24-4.328
			c-0.428-2.478-2.679-4.193-4.88-5.411c-2.201-1.218-4.639-2.297-6.042-4.383c-1.015-1.509-2.214-3.799-3.89-3.093
			c-1.009,0.425-1.253,1.818-0.858,2.839c0.395,1.021,1.228,1.796,1.907,2.654c2.047,2.587,2.661,6.487,0.794,9.207
			c-1.867,2.72-6.445,3.317-8.474,0.715c-0.654-0.839-1-1.889-1.678-2.709c-1.147-1.387-3.178-2.05-3.811-3.735
			c-0.351-0.936-0.174-1.979-0.296-2.971c-0.39-3.154-4.409-5.223-7.203-3.709c-1.005,0.545-1.856,1.602-1.707,2.735
			c0.193,1.461,1.91,2.417,1.956,3.891c0.04,1.277-1.165,2.178-1.996,3.148c-2.283,2.665-2.133,6.912-4.686,9.32
			c-1.608,1.517-3.968,1.968-5.704,3.336c-2.221,1.749-3.102,4.841-2.68,7.636c0.422,2.795,1.979,5.311,3.883,7.401L600,191.312
			V170.197z"/>
		<path style="fill:#2D5C00;" d="M600,176.674c-3.326,0.649-6.985,1.157-10.354,1.519c-1.44,0.155-3.071,0.224-4.14-0.752
			c-0.585-0.534-0.902-1.305-1.457-1.871c-1.265-1.29-3.421-1.169-5.07-0.43c-1.649,0.739-3.037,1.97-4.672,2.74
			c-2.898,1.365-6.258,1.157-9.453,0.921c-1.427-0.105-3.095-0.361-3.766-1.625c-0.303-0.572-0.33-1.247-0.533-1.862
			c-0.764-2.321-4.403-2.942-5.893-1.005c-0.513,0.667-0.759,1.497-1.16,2.237c-0.797,1.469-2.18,2.531-3.623,3.372
			c-3.948,2.301-9.108,3.181-13.038,0.85c-1.369-0.812-2.53-1.973-3.989-2.61c-1.459-0.637-3.442-0.557-4.326,0.767
			c-0.687,1.029-0.471,2.401-0.82,3.588c-0.621,2.11-3.02,3.306-5.218,3.196c-2.197-0.11-4.208-1.236-6.028-2.472
			c-1.407-0.956-2.806-2.017-4.459-2.415c-1.654-0.398-3.667,0.08-4.467,1.582c-0.487,0.913-0.44,2.005-0.625,3.024
			c-0.554,3.045-3.263,5.355-6.222,6.26c-1.648,0.504-3.423,0.663-4.938,1.485c-1.515,0.822-2.714,2.644-2.07,4.242L600,188.216
			V176.674z"/>
	</g>
	<path style="fill:#285105;" d="M392.151,235.842c0,0,10.6,1.264,16.921,0.875c-5.251,12.932-18.768,25.378-18.768,25.378
		S386.317,247.608,392.151,235.842z"/>
	<g>
		<path style="fill:#619800;" d="M316.178,257.841C204.912,261.019,110.916,215.425,0,224.797v49.087l310.684,1.703L316.178,257.841
			z"/>
	</g>
	<path style="fill:#548600;" d="M37.905,242.551c49.966-1.75,112.689,7.293,151.198,14.002c38.509,6.709,44.052,8.459,84.895,0
		c40.843-8.459,85.77-21.878,156.078-42.588c70.308-20.711,90.385-26.545,132.129-30.045L600,182.885v117.042H0
		c0,0,0-34.778,0-53.146C11.698,244.26,37.905,242.551,37.905,242.551z"/>
	<path style="fill:#3D6F03;" d="M600,205.408c-43.283,0.9-110.04,8.98-169.155,30.434c-47.895,17.383-114.355,31.838-158.879,37.609
		c-42.254,5.476-80.711,9.078-126.733-0.409C99.211,263.554,42.258,258.409,0,269.878c0,14.678,0,30.049,0,30.049h600V205.408z"/>
	<g>
		<path style="fill:#E5BD42;" d="M582.883,219.711c-1.109,0-2.035,0.772-2.276,1.807c-1.156-0.057-2.689-0.138-4.458-0.243
			c1.165-1.487,2.375-2.892,3.63-4.209c0.391,0.295,0.877,0.472,1.405,0.472c1.292,0,2.339-1.047,2.339-2.339
			c0-1.292-1.047-2.339-2.339-2.339s-2.339,1.047-2.339,2.339c0,0.455,0.132,0.878,0.357,1.237
			c-1.295,1.357-2.542,2.804-3.743,4.338c-0.292-0.987-0.515-2.258-0.67-3.341c0.952-0.296,1.644-1.184,1.644-2.234
			c0-1.292-1.047-2.339-2.339-2.339c-1.292,0-2.339,1.047-2.339,2.339c0,1.24,0.966,2.251,2.185,2.331
			c0.19,1.331,0.484,2.957,0.892,4.066c-1.05,1.388-2.063,2.845-3.037,4.369c-0.538-1.09-1.001-2.398-1.343-3.483
			c0.771-0.382,1.302-1.175,1.302-2.094c0-1.292-1.047-2.339-2.339-2.339c-1.292,0-2.339,1.047-2.339,2.339
			c0,1.292,1.047,2.339,2.339,2.339c0.072,0,0.143-0.004,0.214-0.011c0.398,1.269,0.964,2.846,1.637,4.082
			c-0.952,1.536-1.864,3.14-2.739,4.806c-0.909-1.007-1.561-2.198-2.001-3.199c0.7-0.404,1.172-1.159,1.172-2.025
			c0-1.292-1.047-2.339-2.339-2.339s-2.339,1.047-2.339,2.339s1.047,2.339,2.339,2.339c0.121,0,0.239-0.012,0.355-0.03
			c0.5,1.151,1.272,2.555,2.393,3.715c-1.558,3.047-2.99,6.304-4.289,9.764c-6.921,18.44-8.823,38.363-5.535,57.757h0.864
			c-3.297-19.29-1.416-39.113,5.469-57.457c1.293-3.445,2.718-6.685,4.268-9.714c0.653,0.026,1.26,0.038,1.818,0.038
			c1.135,0,2.07-0.047,2.821-0.11c0.312,0.924,1.185,1.59,2.215,1.59c1.292,0,2.339-1.047,2.339-2.339
			c0-1.292-1.047-2.339-2.339-2.339c-1.259,0-2.282,0.995-2.334,2.24c-1.004,0.083-2.359,0.134-4.078,0.08
			c0.852-1.617,1.738-3.175,2.663-4.667c1.574,0.149,3.253,0.204,4.558,0.221c0.203,1.085,1.154,1.906,2.297,1.906
			c1.292,0,2.339-1.047,2.339-2.339c0-1.292-1.047-2.339-2.339-2.339c-1.148,0-2.101,0.828-2.299,1.919
			c-1.165-0.015-2.629-0.061-4.043-0.178c0.97-1.518,1.978-2.968,3.023-4.349c2.017,0.122,3.761,0.214,5.042,0.278
			c0.156,1.14,1.132,2.018,2.315,2.018c1.292,0,2.339-1.047,2.339-2.339C585.222,220.758,584.175,219.711,582.883,219.711z"/>
		<path style="fill:#548600;" d="M519.912,244.454c-0.829-1.03-2.466-0.779-3.669-0.23c-4.958,2.261-7.771,7.583-9.344,12.8
			c-1.574,5.217-2.303,10.749-4.813,15.585c-1.306,2.517-3.061,4.773-4.488,7.224c-3.501,6.011-4.924,13.199-4.01,20.094h9.652
			c-0.737-4.519-0.201-9.252,1.66-13.44c1.371-3.086,3.389-5.844,4.849-8.889c2.389-4.983,3.215-10.583,5.428-15.646
			c2.299-5.259,6.171-10.421,5.261-16.087C520.358,245.364,520.231,244.85,519.912,244.454z"/>
		<path style="fill:#548600;" d="M547.374,296.737c-1.368-4.157-3.144-8.249-3.537-12.608c-0.697-7.733,3.024-15.611,1.092-23.131
			c-0.588-2.287-1.677-4.415-2.368-6.673c-2.771-9.055,1.101-19.144-1.672-28.198c-0.539-1.76-1.553-3.645-3.344-4.072
			c-1.834-0.437-3.714,0.956-4.451,2.691c-0.737,1.735-0.602,3.704-0.383,5.577c0.301,2.575,0.736,5.15,0.66,7.741
			c-0.151,5.142-2.306,10.145-1.901,15.273c0.327,4.145,2.303,7.99,2.949,12.098c0.861,5.472-0.679,11.003-1.081,16.528
			c-0.443,6.098,0.541,12.291,2.82,17.964H548.3C548.036,298.848,547.718,297.781,547.374,296.737z"/>
		<path style="fill:#76A704;" d="M551.183,236.811c-0.567-0.649-1.631-0.643-2.375-0.207c-0.744,0.436-1.236,1.192-1.669,1.937
			c-1.395,2.402-2.474,4.987-3.201,7.668c-0.632,2.331-0.997,4.725-1.36,7.113c-2.35,15.436-4.702,31.073-3.596,46.605h9.17
			c-1.793-17.524,0.082-35.391,2.994-52.835c0.495-2.965,1.02-5.991,0.54-8.958C551.61,237.662,551.497,237.171,551.183,236.811z"/>
		<path style="fill:#548600;" d="M593.816,244.013c-1.204-0.535-2.548,0.442-3.314,1.514c-2.046,2.863-2.318,6.627-3.913,9.763
			c-0.88,1.731-2.146,3.235-3.136,4.905c-4.488,7.574-2.766,17.325-5.756,25.606c-1.024,2.836-2.586,5.451-3.653,8.272
			c-0.704,1.861-1.177,3.884-1.111,5.854h8.236c-0.124-1.948-0.006-3.894,0.502-5.779c1.077-3.998,3.807-7.383,4.981-11.354
			c1.222-4.134,0.676-8.615,1.745-12.791c1.099-4.291,3.814-7.958,5.753-11.94c1.94-3.982,3.062-8.869,0.907-12.739
			C594.759,244.789,594.376,244.262,593.816,244.013z"/>
		<path style="fill:#619800;" d="M464.575,273.512c2.393-6.076,2.108-12.83,1.787-19.352c-0.063-1.27-0.298-2.8-1.472-3.288
			c-0.487-0.202-1.041-0.166-1.554-0.048c-3.486,0.801-5.165,4.838-5.426,8.405c-0.26,3.567,0.314,7.303-1.028,10.618
			c-0.61,1.509-1.592,2.847-2.184,4.363c-1.275,3.265-0.608,6.946,0.337,10.322c0.945,3.375,2.167,6.777,1.953,10.276
			c-0.108,1.763-0.576,3.454-1.169,5.12h9.256c0.274-1.865,0.242-3.776-0.117-5.626c-0.883-4.552-3.658-8.859-3.058-13.458
			C462.236,278.255,463.618,275.941,464.575,273.512z"/>
		<path style="fill:#76A704;" d="M378.243,243.916c-0.504,0.162-0.786,0.685-0.995,1.171c-1.073,2.491-1.572,5.189-1.973,7.871
			c-2.335,15.593-1.646,31.63,2.003,46.968h3.23c0.391-3.966,0.772-7.934,1.129-11.903c1.267-14.087,2.292-28.522-1.405-42.174
			C379.96,244.846,379.233,243.599,378.243,243.916z"/>
		<path style="fill:#619800;" d="M399.965,263.798c-1.441-3.066-3.81-5.75-4.494-9.068c-0.396-1.923-0.189-3.914,0.086-5.857
			c1.022-7.208,2.905-14.9-0.176-21.496c-0.568-1.217-1.412-2.449-2.706-2.81c-1.951-0.544-3.859,1.195-4.607,3.077
			c-2.134,5.379,1.596,11.288,1.427,17.073c-0.115,3.928-2.036,7.632-2.162,11.56c-0.181,5.662,3.357,10.832,3.822,16.478
			c0.372,4.52-1.249,8.952-1.649,13.469c-0.417,4.701,0.562,9.501,2.703,13.703h9.332c-0.934-2.641-1.868-5.282-2.802-7.923
			c-0.44-1.244-0.883-2.501-1.04-3.811c-0.54-4.508,2.312-8.654,3.394-13.063C402.017,271.372,401.611,267.301,399.965,263.798z"/>
		<g>
			<path style="fill:#76A704;" d="M414.664,226.796c-0.576,0.163-0.998,0.646-1.359,1.124c-2,2.64-3.214,5.78-4.323,8.901
				c-4.074,11.455-7.084,23.256-10.087,35.037c-0.757,2.97-1.515,5.941-2.076,8.954c-1.172,6.291-1.47,12.742-0.901,19.116h4.87
				l0.002-0.003c0.649-3.917,2.126-7.656,3.486-11.394c4.227-11.62,7.414-23.587,10.544-35.549
				c1.972-7.537,3.939-15.344,2.704-23.037C417.268,228.355,416.214,226.356,414.664,226.796z"/>
		</g>
		<path style="fill:#619800;" d="M297.65,263.348c-3.057,7.298-5.677,14.78-7.842,22.391c0.792-5.883,1.013-11.844,0.656-17.769
			c-0.178-2.955-0.534-6.013-2.074-8.542c-1.097-0.064-1.721,1.214-2.004,2.276c-2.038,7.662-1.92,15.71-1.788,23.638
			c-0.587-5.453-2.244-10.789-4.849-15.615c-0.502-0.93-1.548-1.982-2.426-1.394c-0.299,0.2-0.462,0.545-0.593,0.88
			c-1.028,2.635-0.86,5.578-0.446,8.375c1.189,8.02,4.319,15.742,9.029,22.34h7.37c2.527-7.829,4.667-15.783,6.408-23.824
			c1.017-4.697,1.891-9.628,0.598-14.257C298.841,261.408,298.019,262.467,297.65,263.348z"/>
		<path style="fill:#619800;" d="M176.227,259.624c-0.722-0.067-1.293,0.581-1.684,1.191c-3.184,4.974-3.146,11.291-2.796,17.187
			c0.441,7.405,1.225,14.866,3.465,21.925h3.999c0.288-4.413,0.536-8.829,0.741-13.246c0.396-8.545,0.601-17.331-2.25-25.396
			C177.441,260.545,177.008,259.696,176.227,259.624z"/>
		<g>
			<path style="fill:#619800;" d="M140.645,268.263c-0.038-3.106-0.077-6.216-0.355-9.31c-0.251-2.791-0.762-5.713-2.541-7.878
				c-0.956,0.047-1.46,1.134-1.713,2.057c-2.958,10.783-0.417,22.195,0.046,33.366c-1.632-11.631-4.643-23.068-8.949-33.996
				c-0.349-0.887-1.146-1.961-2.005-1.547c-0.352,0.17-0.548,0.55-0.685,0.916c-0.691,1.851-0.479,3.902-0.213,5.86
				c1.998,14.692,6.549,29.032,13.375,42.194h3.431C140.905,289.372,140.775,278.818,140.645,268.263z"/>
		</g>
		<path style="fill:#76A704;" d="M85.769,242.516c-0.714-0.003-1.313,0.526-1.768,1.076c-2.583,3.128-2.726,7.541-2.727,11.597
			c-0.001,14.981,0.296,30.123,3.403,44.737h4.723c0.28-9.067,0.466-18.136,0.545-27.207c0.08-9.238,0.044-18.572-2.053-27.568
			C87.616,243.961,86.992,242.52,85.769,242.516z"/>
		<path style="fill:#285105;" d="M77.806,299.927c0,0-13.955-23.733-14.344-62.626c15.17,28.392,17.31,62.626,17.31,62.626H77.806z"
			/>
		<path style="fill:#224A06;" d="M63.463,237.301c0.389,38.894,14.344,62.626,14.344,62.626h1.418c0,0-5.162-16.537-8.274-31.313
			C67.839,253.838,63.463,237.301,63.463,237.301z"/>
		<path style="fill:#285105;" d="M100.124,252.615c-11.232,16.481-14.149,47.312-14.149,47.312h4.96
			C95.748,293.566,100.854,275.66,100.124,252.615z"/>
		<path style="fill:#224A06;" d="M100.124,252.615c0,0-4.762,28.845-12.203,47.312h3.013
			C95.748,293.566,100.854,275.66,100.124,252.615z"/>
		<path style="fill:#285105;" d="M104.354,245.038c-3.356,29.031,7.002,54.889,7.002,54.889h4.376
			C115.732,299.927,114.419,266.617,104.354,245.038z"/>
		<path style="fill:#224A06;" d="M111.356,299.927h2.042l0,0c-3.063-15.112-9.045-54.889-9.045-54.889
			C100.998,274.069,111.356,299.927,111.356,299.927z"/>
		<path style="fill:#224A06;" d="M137.466,276.271c-8.242,8.56-13.93,23.656-13.93,23.656s1.459,0,2.844,0
			c4.973-4.174,9.405-9.436,12.738-13.898L137.466,276.271z"/>
		<path style="fill:#619800;" d="M210.108,270.069c-2.48,4.91-5.397,15.071-5.397,15.071s0.948-4.521,1.167-12.689
			c0.219-8.168-2.334-8.168-4.522-0.656c-2.188,7.511-2.188,28.133-2.188,28.133h3.984c4.13-6.872,8.853-22.298,10.238-28.497
			C214.776,265.231,212.588,265.158,210.108,270.069z"/>
		<path style="fill:#285105;" d="M214.776,299.927c10.503-5.34,25.381-16.634,39.287-28.886
			c-22.561,4.862-46.291,25.376-46.291,25.376l-4.62,3.51H214.776z"/>
		<path style="fill:#224A06;" d="M248.1,291.944c4.734-13.032,11.312-21.875,11.312-21.875s3.503,0.721,5.544,6.389
			c-6.587,4.862-17.651,23.469-17.651,23.469S246.885,295.104,248.1,291.944z"/>
		<path style="fill:#224A06;" d="M409.072,236.717l-9.454,15.247c0,0,9.6,17.682,5.224,47.963l4.516,0l3.36-19.554
			C416.947,253.874,409.072,236.717,409.072,236.717z"/>
		<path style="fill:#548600;" d="M447.728,291.964c0,0,3.5-10.908,5.105-14.409c1.605-3.5,4.376-2.825,2.553,2.817
			c-1.823,5.642-3.063,8.997-3.063,8.997s3.574-5.178,5.689-8.24c2.115-3.063,3.647-2.249,1.021,2.558
			c1.969-1.246,2.698-0.225,0.219,3.859c-2.48,4.084-7.294,12.381-7.294,12.381h-7.536L447.728,291.964z"/>
		<path style="fill:#548600;" d="M322.191,290.108c-1.418-9.247-1.515-16.053-1.71-20.331c-0.194-4.278,1.848-5.834,3.306,0
			c1.459,5.834,2.042,14.293,2.042,14.293s1.653-5.931,3.501-11.96c1.848-6.029,4.668-6.417,3.015,2.139
			c-1.653,8.556-4.668,20.726-6.71,25.677h-3.404L322.191,290.108z"/>
		<path style="fill:#285105;" d="M147.677,299.927c0,0,1.945,0,3.792,0c6.807-11.563,6.418-18.871,10.308-42.304
			C150.4,273.958,147.677,299.927,147.677,299.927z"/>
		<path style="fill:#285105;" d="M197.467,299.927c0,0,5.057,0,7.099,0c3.792-3.59,15.559-18.482,21.297-31.9
			C205.441,281.639,197.467,299.927,197.467,299.927z"/>
		<path style="fill:#285105;" d="M243.366,299.927c0,0-4.959-21.205,3.209-42.499c4.084,18.086,0.729,42.499,0.729,42.499H243.366z"
			/>
		<path style="fill:#285105;" d="M259.412,270.069c0,0,4.668-0.486,11.378,0c0.778,8.848-1.75,15.415-1.75,15.415
			S266.802,276.292,259.412,270.069z"/>
		<path style="fill:#619800;" d="M361.228,262.776c-3.987-10.793-7.974-16.919-6.126,0c1.848,16.919,7.512,37.151,7.512,37.151
			h4.254C367.451,295.559,365.215,273.569,361.228,262.776z"/>
		<path style="fill:#285105;" d="M310.684,275.586c1.823,13.054,10.357,24.341,10.357,24.341h3.647
			C324.761,297.504,323.229,285.65,310.684,275.586z"/>
		<path style="fill:#285105;" d="M409.358,299.927h3.507c11.086-13.508,16.337-35.79,48.428-64.085
			C404.696,260.345,409.358,299.927,409.358,299.927z"/>
		<path style="fill:#285105;" d="M445.102,269.607c-10.43,11.303-11.961,30.32-11.961,30.32h12.472
			C447.508,296.629,450.499,281.858,445.102,269.607z"/>
		<path style="fill:#619800;" d="M479.326,248.094c-0.146-6.563-1.021-9.043-2.917-2.625c-6.856,22.461-1.945,54.459-1.945,54.459
			h2.82C479.034,285.69,479.472,254.657,479.326,248.094z"/>
		<path style="fill:#548600;" d="M501.297,251.011c-13.128,14.293-22.755,48.916-22.755,48.916h2.44
			c8.421-14.383,21.191-41.186,23.379-46.583C506.548,247.948,506.402,244.885,501.297,251.011z"/>
		<path style="fill:#619800;" d="M150.23,264.356c-0.146-7.147-1.532-8.095-3.501-0.583c-1.969,7.511-2.407,36.154-2.407,36.154
			h3.86l0.477-6.54C148.659,293.387,150.376,271.503,150.23,264.356z"/>
		<path style="fill:#224A06;" d="M106.161,291.998c-0.562,0.317-1.079,0.71-1.539,1.163c-0.296-4.507-1.414-6.819-1.48-6.953
			c-0.108-0.216-0.369-0.304-0.586-0.197c-0.216,0.107-0.304,0.37-0.198,0.586c0.015,0.031,1.097,2.286,1.385,6.673
			c-0.324-0.328-0.679-0.624-1.084-0.842c-0.573-0.307-1.254-0.45-1.883-0.285c-0.234,0.061-0.465,0.17-0.614,0.36
			c-0.328,0.419-0.14,1.036,0.135,1.492c0.765,1.268,2.046,2.121,3.286,2.932c0.062,0.041,0.126,0.08,0.195,0.107
			c-0.038,0.892-0.109,1.839-0.223,2.843c-0.002,0.017-0.001,0.033-0.001,0.049h0.875c0.126-1.118,0.202-2.167,0.238-3.148
			c1.244-0.603,2.353-1.484,3.216-2.563c0.263-0.329,0.509-0.686,0.611-1.095c0.103-0.408,0.038-0.88-0.254-1.183
			C107.721,291.4,106.812,291.63,106.161,291.998z"/>
		<path style="fill:#FFFFFF;" d="M105.667,286.404c0,1.611-1.306,2.917-2.917,2.917c-1.611,0-2.917-1.306-2.917-2.917
			c0-1.611,1.306-2.917,2.917-2.917C104.361,283.487,105.667,284.793,105.667,286.404z"/>
		<path style="fill:#E5BD42;" d="M136.908,264.519c-0.357-0.509-0.956-0.894-1.564-0.87c-0.17-0.88-0.591-1.491-1.187-1.719
			c-0.611-0.234-1.32-0.05-2.109,0.547c-3.042,2.305-5.491,4.774-7.466,7.285c-0.061,0.046-0.106,0.106-0.135,0.173
			c-1.739,2.236-3.104,4.503-4.17,6.715c-0.051,0.06-0.086,0.132-0.099,0.209c-1.734,3.655-2.663,7.152-3.145,10.097
			c-1.137,6.946-0.121,12.177,0.05,12.973h0.885c0-0.033-0.003-0.066-0.01-0.099c-0.013-0.054-1.243-5.509-0.061-12.733
			c0.468-2.859,1.369-6.251,3.044-9.8c0.213-0.044,0.576-0.076,0.879,0.115c0.341,0.215,0.549,0.675,0.619,1.367
			c-0.137,0.131-0.25,0.29-0.328,0.461c-0.188,0.413-0.211,0.881-0.191,1.335c0.07,1.609,0.636,3.174,1.484,4.544
			c0.848,1.369,1.972,2.553,3.199,3.596c-0.061-1.423-0.122-2.847-0.183-4.271c-0.05-1.155-0.108-2.345-0.603-3.389
			c-0.294-0.62-0.729-1.16-1.172-1.684c-0.365-0.432-0.819-0.887-1.367-0.922c-0.13-0.85-0.464-1.452-1.001-1.784
			c-0.298-0.185-0.613-0.256-0.896-0.271c0.997-1.968,2.241-3.974,3.784-5.956c0.588-0.292,1.124-0.338,1.553-0.125
			c0.407,0.201,0.699,0.638,0.781,1.167c0.002,0.009,0.007,0.016,0.009,0.025c-0.076,0.101-0.142,0.211-0.202,0.322
			c-0.746,1.388-0.867,3.06-0.516,4.596c0.351,1.536,1.146,2.944,2.13,4.174c0.467,0.584,0.981,1.139,1.338,1.796
			c0.314-0.486,0.78-0.873,1.316-1.094c-0.37-2.242-0.74-4.484-1.111-6.726c-0.151-0.913-0.312-1.855-0.815-2.632
			c-0.198-0.306-0.455-0.587-0.784-0.745c-0.173-0.083-0.367-0.126-0.558-0.122c-0.179-0.689-0.614-1.257-1.201-1.547
			c-0.316-0.156-0.665-0.225-1.031-0.217c1.783-2.114,3.925-4.186,6.501-6.138c0.365-0.277,0.881-0.576,1.267-0.428
			c0.295,0.113,0.536,0.515,0.643,1.073c0.01,0.049,0.028,0.093,0.052,0.134c-0.302,0.234-0.532,0.575-0.668,0.937
			c-0.35,0.929-0.187,1.984,0.192,2.902c0.379,0.918,0.958,1.737,1.471,2.586c0.555,0.917,1.038,1.878,1.442,2.871
			c0.391-0.628,1.296-0.612,2.031-0.521c-0.46-2.079-0.92-4.158-1.38-6.238C137.474,265.803,137.313,265.095,136.908,264.519z"/>
		<path style="fill:#E5BD42;" d="M343.943,281.609c-0.007-0.019-0.015-0.037-0.024-0.055c-4.159-9.246-10.339-11.063-10.788-11.183
			c-1.362-0.456-2.23,0.443-2.803,1.382c-0.598-0.099-1.252,0.259-1.732,0.679c-1.043,0.913-1.783,2.134-2.282,3.427
			c-0.499,1.293-0.768,2.662-0.981,4.032c0.216-0.212,0.578-0.056,0.82,0.126c0.241,0.182,0.545,0.395,0.817,0.264
			c0.162-0.078,0.247-0.255,0.32-0.419c0.208-0.467,0.412-0.936,0.668-1.379c0.797-1.381,2.055-2.445,2.885-3.806
			c0.276-0.451,0.507-0.95,0.522-1.478c0.01-0.347-0.092-0.706-0.294-0.982c0.713-1.166,1.281-1.186,1.792-1.012
			c0.01,0.004,0.021,0.007,0.032,0.009c0.039,0.01,2.477,0.679,5.289,3.423c-0.899-0.005-1.669,0.453-2.329,1.371
			c-0.15-0.055-0.308-0.084-0.471-0.076c-0.388,0.018-0.743,0.224-1.044,0.469c-0.554,0.451-0.974,1.047-1.331,1.666
			c-1.159,2.012-1.716,4.366-1.583,6.685c0.023,0.397,0.075,0.818,0.323,1.13c0.208-0.288,0.598-0.431,0.943-0.345
			c0.474-1.911,1.578-3.604,2.799-5.148c0.391-0.495,0.8-0.985,1.076-1.552s0.408-1.233,0.215-1.834
			c-0.052-0.164-0.135-0.318-0.238-0.458c0.742-1.06,1.563-1.279,2.728-0.756c1.201,1.377,2.422,3.151,3.517,5.42
			c-0.676,0.007-1.494,0.257-2.166,1.051c-0.144,0.033-0.285,0.085-0.411,0.152c-0.759,0.397-1.311,1.1-1.756,1.832
			c-0.933,1.534-1.499,3.289-1.64,5.079c0.533-0.177,0.947-0.593,1.336-0.999c0.583-0.607,1.16-1.22,1.731-1.839
			c0.484-0.525,0.968-1.059,1.321-1.68c0.289-0.508,0.489-1.082,0.475-1.667c-0.005-0.197-0.039-0.404-0.136-0.572
			c0.649-0.569,1.345-0.511,1.67-0.44c0.068,0.154,0.137,0.305,0.204,0.464c4.068,9.648,2.14,17.151,2.12,17.226
			c-0.01,0.038-0.013,0.076-0.013,0.114h0.887c0.246-1.006,1.784-8.261-2.188-17.68C344.132,282.029,344.037,281.82,343.943,281.609
			z"/>
		<path style="fill:#E5C449;" d="M385.18,263.718c-0.07-0.986-0.359-1.956-0.842-2.819c-0.193-0.345-0.433-0.688-0.788-0.861
			c-0.114-0.056-0.236-0.085-0.359-0.1c0-0.005,0.001-0.011,0-0.016c-0.08-1.064-0.505-1.882-1.166-2.243
			c-0.428-0.234-1.163-0.39-2.232,0.188c-0.283,0.147-7.008,3.741-13.218,15.104c-6.196,11.336-6.849,26.785-6.855,26.94
			c0,0.006,0.001,0.011,0.001,0.017h0.874c0.024-0.566,0.73-15.402,6.667-26.387c0.22-0.061,0.58-0.114,0.824,0.035
			c0.202,0.124,0.322,0.393,0.358,0.799c0.008,0.094,0.051,0.174,0.108,0.241c-0.117,0.143-0.209,0.313-0.269,0.484
			c-0.377,1.072-0.013,2.248,0.349,3.325c0.521,1.548,1.043,3.097,1.564,4.645c0.413-1.368,0.829-2.751,0.916-4.178
			c0.087-1.426-0.184-2.922-1.032-4.072c-0.194-0.263-0.45-0.52-0.77-0.563c-0.068-0.679-0.327-1.161-0.773-1.431
			c-0.245-0.149-0.509-0.207-0.756-0.22c1.638-2.887,3.308-5.239,4.873-7.134c0.143-0.072,0.492-0.218,0.774-0.093
			c0.347,0.153,0.506,0.685,0.578,1.104c0.01,0.06,0.034,0.112,0.064,0.16c-0.214,0.197-0.379,0.467-0.478,0.741
			c-0.376,1.036-0.173,2.203,0.253,3.22c0.426,1.016,1.062,1.929,1.59,2.896c0.578,1.06,1.028,2.189,1.337,3.356
			c0.127-0.735,0.962-1.26,1.679-1.057c-0.741-0.919-0.916-2.164-0.973-3.344c-0.057-1.18-0.03-2.395-0.462-3.495
			c-0.249-0.633-0.641-1.2-1.046-1.747c-0.284-0.383-0.639-0.789-1.1-0.852c-0.001-0.009,0-0.019-0.002-0.028
			c-0.157-0.917-0.523-1.508-1.087-1.757c-0.097-0.043-0.194-0.072-0.29-0.092c3.731-4.247,6.664-5.822,6.711-5.848
			c0.585-0.317,1.057-0.382,1.402-0.193c0.39,0.213,0.656,0.789,0.712,1.54c0.003,0.042,0.014,0.081,0.028,0.119
			c-0.179,0.094-0.344,0.216-0.476,0.366c-0.412,0.465-0.574,1.101-0.627,1.72c-0.105,1.227,0.166,2.452,0.436,3.654
			c0.398,1.775,0.797,3.55,1.195,5.325c0.019-0.686,0.905-1.176,1.496-0.827c0.294,0.174,0.48,0.486,0.751,0.694
			c-0.462-1.142-0.412-2.423-0.259-3.645C385.017,266.17,385.267,264.946,385.18,263.718z"/>
		<path style="fill:#E5BD42;" d="M399.229,272.676c-0.148-0.84-0.425-1.657-0.817-2.414c-0.127-0.245-0.274-0.493-0.504-0.645
			c-0.032-0.021-0.066-0.039-0.101-0.055c0.004-0.033,0.005-0.066,0.002-0.1c-0.005-0.043-0.121-1.056-0.917-1.538
			c-0.529-0.32-1.196-0.325-1.984-0.013c-0.02,0.008-0.039,0.017-0.058,0.028c-2.867,1.652-5.367,3.56-7.547,5.584
			c-0.059,0.034-0.108,0.079-0.144,0.133c-1.512,1.417-2.866,2.889-4.077,4.369c-0.058,0.043-0.104,0.1-0.134,0.164
			c-2.748,3.391-4.746,6.817-6.153,9.712c-3.188,6.559-4.126,11.898-4.136,11.951c-0.004,0.025-0.005,0.049-0.005,0.074h0.882
			c0.181-0.955,2.335-11.547,10.078-21.155c0.203-0.023,0.578-0.023,0.912,0.221c0.477,0.349,0.744,1.109,0.773,2.2
			c0.002,0.058,0.015,0.113,0.037,0.164c-0.24,0.224-0.367,0.625-0.41,0.974c-0.299,2.457,0.386,5.02,1.87,7.002
			c0.357-1.933,0.429-3.919,0.214-5.873c-0.07-0.641-0.182-1.305-0.556-1.831c-0.083-0.117-0.186-0.227-0.304-0.31
			c0.016-0.047,0.025-0.097,0.024-0.15c-0.037-1.392-0.418-2.361-1.132-2.883c-0.249-0.182-0.508-0.284-0.75-0.34
			c1.06-1.254,2.22-2.486,3.485-3.671c0.205-0.062,0.731-0.182,1.153,0.063c0.351,0.203,0.576,0.635,0.67,1.283
			c0.012,0.08,0.049,0.147,0.096,0.206c-0.12,0.131-0.221,0.285-0.291,0.444c-0.311,0.701-0.267,1.506-0.147,2.263
			c0.351,2.213,1.321,4.325,2.771,6.033c0.03-0.228,0.06-0.456,0.091-0.685c0.01-0.076,0.022-0.157,0.074-0.213
			c0.189-0.207,0.581,0.148,0.795-0.031c-0.316-2.403-0.638-4.831-1.495-7.098c-0.177-0.469-0.453-0.992-0.948-1.073
			c-0.029-0.005-0.057-0.002-0.085-0.003c-0.139-0.912-0.508-1.548-1.099-1.886c-0.189-0.108-0.385-0.174-0.577-0.213
			c1.92-1.686,4.068-3.261,6.473-4.649c0.504-0.194,0.899-0.208,1.176-0.043c0.425,0.254,0.503,0.88,0.504,0.883
			c0.009,0.083,0.041,0.156,0.087,0.218c-0.026,0.045-0.05,0.093-0.071,0.141c-0.623,1.413-0.226,3.044,0.178,4.534
			c0.387,1.424,0.784,2.871,1.569,4.119c0.072-0.096,0.145-0.193,0.217-0.289c0.251-0.06,0.533,0.135,0.565,0.391
			c-0.023-1.131-0.046-2.261-0.069-3.392C399.399,274.407,399.381,273.533,399.229,272.676z"/>
		<path style="fill:#E5C449;" d="M473.615,275.591c0.004-0.088-0.017-0.175-0.064-0.251c-0.664-2.6-1.382-4.916-2.085-6.929
			c-0.003-0.087-0.031-0.173-0.086-0.247c-2.089-5.911-4.032-9.139-4.072-9.203c-0.37-0.648-0.96-0.939-1.62-0.798
			c-0.849,0.181-1.612,1.076-1.702,1.993c0,0.004,0,0.009,0,0.013c-0.164,0.017-0.329,0.059-0.48,0.111
			c-2.046,0.712-3.419,2.598-4.607,4.409c-1.163,1.773-2.295,3.619-2.787,5.681c0.884-0.545,1.769-1.091,2.654-1.636
			c-0.196,0.842-0.392,1.685-0.588,2.527c2.181-2.31,4.155-4.815,5.889-7.477c0.581-0.892,1.159-1.937,0.888-2.967
			c-0.035-0.134-0.089-0.266-0.172-0.376c0.04-0.058,0.067-0.126,0.074-0.201c0.052-0.537,0.536-1.12,1.014-1.223
			c0.277-0.058,0.499,0.065,0.684,0.389c0.038,0.062,1.608,2.672,3.432,7.485c-0.287-0.151-0.57-0.23-0.857-0.236
			c-0.601-0.014-1.195,0.304-1.747,0.942c-0.021,0.024-0.038,0.049-0.052,0.076c-0.473-0.145-1.004,0.047-1.431,0.314
			c-1.472,0.92-2.29,2.572-3.035,4.14c-0.801,1.686-1.602,3.371-2.403,5.057c0.282,0.292,0.782,0.251,1.122,0.031
			c0.34-0.221,0.565-0.576,0.801-0.906c0.899-1.258,2.088-2.273,3.158-3.388c0.64-0.667,1.24-1.372,1.796-2.11
			c0.361-0.48,0.713-0.997,0.804-1.59c0.051-0.333-0.008-0.693-0.164-0.988c0.024-0.018,0.047-0.038,0.067-0.062
			c0.379-0.438,0.725-0.641,1.066-0.64c0.427,0.009,0.92,0.364,1.501,1.077c0.638,1.816,1.287,3.885,1.899,6.194
			c-0.428-0.122-0.957-0.182-1.483-0.003c-0.635,0.217-1.119,0.727-1.444,1.511c-0.16,0.077-0.309,0.191-0.443,0.308
			c-1.122,0.98-1.889,2.315-2.401,3.715c-0.512,1.4-0.786,2.873-1.056,4.338c1.05-0.793,1.861-1.853,2.659-2.899
			c0.877-1.151,1.768-2.324,2.261-3.685c0.129-0.356,0.23-0.738,0.16-1.109c-0.038-0.198-0.139-0.39-0.28-0.532
			c0.214-0.426,0.489-0.701,0.824-0.817c0.558-0.192,1.186,0.07,1.473,0.218c1.61,6.396,2.888,14.509,2.838,24.078l0,0.002h0.875
			C476.544,290.263,475.248,282.061,473.615,275.591z"/>
		<path style="fill:#E5BD42;" d="M495.741,262.333c-0.359-1.494-0.194-3.109-0.788-4.526c-0.191-0.456-0.489-0.906-0.947-1.091
			c-0.255-0.103-0.534-0.104-0.8-0.035c-0.026-0.064-0.067-0.124-0.125-0.171c-0.667-0.547-1.376-0.746-2.049-0.578
			c-0.877,0.219-1.621,1.049-2.21,2.467c-0.136,0.327-0.278,0.664-0.424,1.013c-3.141,7.487-8.395,20.014-4.964,40.515h0.879
			c0-0.024-0.001-0.048-0.005-0.073c-1.697-10.087-1.265-18.221-0.02-24.765c0.321-0.221,1.207-0.689,1.998,0.212
			c0.081,0.092,0.192,0.14,0.306,0.147c0.064,0.999,0.476,1.973,1.159,2.705c0.593,0.636,1.373,1.091,1.894,1.788
			c-0.022-1.09-0.231-2.176-0.615-3.196c-0.175-0.465-0.392-0.925-0.729-1.29c-0.332-0.359-0.798-0.617-1.286-0.614
			c-0.018-0.042-0.04-0.081-0.071-0.117c-0.8-0.912-1.724-0.944-2.44-0.709c0.58-2.774,1.3-5.249,2.052-7.455
			c0.237-0.136,0.817-0.416,1.363-0.256c0.428,0.126,0.776,0.512,1.035,1.148c0.016,0.039,0.038,0.074,0.063,0.106
			c-0.02,0.024-0.04,0.048-0.058,0.074c-0.323,0.454-0.331,1.075-0.148,1.601c0.183,0.526,0.534,0.976,0.895,1.4
			c0.45,0.527,0.929,1.036,1.289,1.628c0.36,0.592,0.596,1.289,0.502,1.976c0.102-1.008,1.062-1.852,2.075-1.823
			c-0.801-0.629-1.427-1.478-1.79-2.428c-0.189-0.494-0.308-1.014-0.523-1.497c-0.215-0.483-0.547-0.943-1.028-1.162
			c-0.138-0.063-0.289-0.103-0.441-0.112c-0.005-0.031-0.013-0.061-0.026-0.091c-0.366-0.898-0.906-1.457-1.606-1.66
			c-0.434-0.125-0.859-0.088-1.22,0.005c0.781-2.173,1.575-4.069,2.266-5.717c0.147-0.35,0.289-0.688,0.425-1.016
			c0.47-1.132,1.029-1.807,1.614-1.954c0.46-0.116,0.896,0.111,1.205,0.346c-0.013,0.014-0.028,0.025-0.04,0.039
			c-0.393,0.439-0.555,1.044-0.58,1.632c-0.112,2.683,2.277,4.836,2.782,7.474c0.21-0.342,0.239-0.762,0.369-1.142
			c0.13-0.38,0.441-0.763,0.842-0.739c0.318,0.02,0.627,0.293,0.919,0.166C496.273,263.887,495.932,263.128,495.741,262.333z"/>
		<path style="fill:#E5BD42;" d="M508.151,264.834c-0.004-0.031-0.011-0.063-0.022-0.094c-0.379-1.053-0.972-1.445-1.404-1.588
			c-0.657-0.218-1.424-0.044-2.279,0.518c-0.283,0.161-3.461,2.042-6.957,7.319c-1.513,2.283-3.218,5.436-4.746,9.626
			c-0.037,0.057-0.06,0.12-0.068,0.185c-1.759,4.879-3.275,11.151-3.974,19.086c-0.001,0.013,0.001,0.026,0.001,0.039h0.875
			c0.694-7.835,2.188-14.017,3.918-18.818c0.231-0.165,0.699-0.418,1.094-0.304c0.464,0.135,0.738,0.753,0.886,1.247
			c0.023,0.078,0.07,0.141,0.126,0.193c-0.131,0.233-0.178,0.509-0.189,0.778c-0.08,1.897,1.112,3.589,1.624,5.417
			c0.021-0.642,0.798-1.13,1.386-0.869c0.158,0.07,0.317,0.184,0.485,0.145c-0.597-0.243-0.814-0.961-0.958-1.589
			c-0.17-0.74-0.339-1.479-0.509-2.219c-0.127-0.553-0.257-1.115-0.532-1.612c-0.101-0.182-0.231-0.363-0.424-0.443
			c-0.054-0.023-0.111-0.033-0.168-0.037c-0.001-0.005-0.001-0.009-0.003-0.014c-0.306-1.023-0.804-1.641-1.481-1.837
			c-0.316-0.092-0.628-0.075-0.907-0.008c1.391-3.606,2.9-6.371,4.252-8.42c0.178-0.27,0.355-0.529,0.532-0.781
			c0.261-0.1,0.517-0.082,0.78,0.068c0.727,0.416,1.284,1.638,1.388,3.039c0.005,0.068,0.029,0.129,0.062,0.185
			c-0.267,0.218-0.47,0.535-0.553,0.87c-0.166,0.671,0.027,1.376,0.255,2.029c0.83,2.375,2.169,4.74,1.836,7.233
			c0.098-0.505,0.641-0.841,1.155-0.823c0.514,0.018,0.983,0.319,1.333,0.697c-1.775-2.687-0.383-6.546-1.989-9.337
			c-0.248-0.431-0.606-0.851-1.095-0.942c-0.045-0.008-0.09-0.013-0.134-0.015c-0.134-1.688-0.847-3.136-1.822-3.694
			c-0.181-0.104-0.37-0.173-0.561-0.212c2.983-3.975,5.497-5.41,5.524-5.425c0.01-0.006,0.02-0.012,0.03-0.018
			c0.624-0.414,1.141-0.558,1.533-0.426c0.447,0.148,0.712,0.655,0.856,1.053c0.008,0.022,0.018,0.041,0.029,0.061
			c-0.537,0.435-0.688,1.314-0.607,2.049c0.336,3.05,2.828,5.439,3.625,8.402c0.17-0.469,0.341-0.938,0.511-1.408
			c0.028-0.077,0.066-0.163,0.144-0.185c0.071-0.02,0.143,0.022,0.205,0.063c0.412,0.27,0.825,0.54,1.237,0.81
			c-2.028-2.408-0.986-6.298-2.732-8.918C509.356,265.366,508.769,264.87,508.151,264.834z"/>
		<path style="fill:#76A704;" d="M51.305,244.454c-0.829-1.03-2.466-0.779-3.669-0.23c-4.958,2.261-7.771,7.583-9.344,12.8
			c-1.574,5.217-2.302,10.749-4.813,15.585c-1.306,2.517-3.061,4.773-4.489,7.224c-3.5,6.011-4.923,13.199-4.01,20.094h9.652
			c-0.737-4.519-0.201-9.252,1.66-13.44c1.371-3.086,3.389-5.844,4.849-8.889c2.389-4.983,3.215-10.583,5.428-15.646
			c2.299-5.259,6.171-10.421,5.261-16.087C51.75,245.364,51.623,244.85,51.305,244.454z"/>
		<path style="fill:#76A704;" d="M10.718,248.094c-0.146-6.563-1.021-9.043-2.917-2.625c-6.856,22.461-1.945,54.459-1.945,54.459
			h2.82C10.427,285.69,10.864,254.657,10.718,248.094z"/>
		<path style="fill:#619800;" d="M32.689,251.011c-13.128,14.293-22.755,48.916-22.755,48.916h2.44
			c8.42-14.383,21.191-41.186,23.379-46.583C37.94,247.948,37.794,244.885,32.689,251.011z"/>
		<path style="fill:#76A704;" d="M118.139,251.23c-2.261-0.219-4.595,12.762-5.908,27.545c-1.313,14.783,0,21.152,0,21.152h2.699
			c0,0,1.896-22.663,3.209-33.529C119.452,255.532,120.4,251.448,118.139,251.23z"/>
		<g>
			<path style="fill:#224A06;" d="M192.386,292.28c-0.625-0.291-1.35-0.282-2.03-0.166c-0.795,0.135-1.565,0.411-2.267,0.806
				c1.024-3.888,2.406-6.716,2.428-6.76c0.107-0.216,0.018-0.479-0.198-0.586c-0.216-0.107-0.479-0.018-0.586,0.198
				c-0.092,0.186-1.553,3.172-2.586,7.258c-0.274-0.431-0.579-0.843-0.916-1.228c-0.875-1.002-2.092-1.872-3.417-1.755
				c-0.461,0.041-0.96,0.248-1.13,0.679c-0.16,0.406,0.025,0.861,0.237,1.243c0.919,1.657,2.368,2.945,3.789,4.199
				c0.221,0.195,0.452,0.395,0.706,0.539c-0.148,1.044-0.249,2.119-0.278,3.207c0,0.004,0.001,0.008,0.001,0.012h0.874
				c0.028-1.016,0.122-2.024,0.261-3.007c0.242-0.007,0.485-0.052,0.723-0.101c1.387-0.287,2.796-0.585,4.046-1.252
				c0.666-0.356,1.334-0.906,1.401-1.659C193.505,293.221,193.011,292.571,192.386,292.28z"/>
			<circle style="fill:#FFFFFF;" cx="190.125" cy="285.966" r="3.549"/>
		</g>
		<g>
			<path style="fill:#224A06;" d="M264.569,292.818c-1.007,0.113-1.996,0.381-2.924,0.787c1.11-3.608,2.638-5.952,2.661-5.987
				c0.133-0.201,0.078-0.473-0.123-0.606c-0.201-0.133-0.473-0.079-0.606,0.123c-0.102,0.153-1.769,2.706-2.902,6.625
				c-0.376-0.667-0.872-1.266-1.469-1.746c-0.394-0.317-0.845-0.591-1.346-0.663c-0.501-0.072-1.06,0.093-1.351,0.507
				c-0.363,0.516-0.221,1.228,0.016,1.814c0.623,1.545,1.809,2.857,3.284,3.631c0.029,0.015,0.059,0.03,0.088,0.044
				c-0.119,0.822-0.204,1.677-0.239,2.561c0,0.006,0.001,0.012,0.001,0.018h0.874c0.034-0.825,0.114-1.627,0.226-2.399
				c0.122-0.012,0.243-0.035,0.363-0.06c1.199-0.253,2.349-0.736,3.368-1.415c0.755-0.503,1.489-1.21,1.555-2.114
				c0.023-0.32-0.054-0.666-0.288-0.885C265.451,292.768,264.983,292.772,264.569,292.818z"/>
			<path style="fill:#FFFFFF;" d="M267.206,287.029c0,1.803-1.462,3.264-3.265,3.264c-1.803,0-3.265-1.462-3.265-3.264
				c0-1.803,1.462-3.264,3.265-3.264C265.744,283.764,267.206,285.226,267.206,287.029z"/>
		</g>
		<g>
			<path style="fill:#224A06;" d="M308.064,288.692c-1.171-0.348-2.15,1.11-2.859,2.104c-0.26,0.365-0.502,0.741-0.735,1.124
				c-1.569-4.408-4.462-6.523-4.642-6.65c-0.197-0.14-0.47-0.093-0.61,0.103c-0.14,0.197-0.094,0.47,0.103,0.61
				c0.042,0.03,2.924,2.133,4.406,6.53c-1.466-0.638-3.176-0.702-4.678-0.151c-0.442,0.162-0.915,0.432-1.019,0.892
				c-0.075,0.33,0.067,0.673,0.264,0.948c0.45,0.624,1.174,0.994,1.905,1.234c1.302,0.428,2.689,0.516,4.057,0.6
				c0.076,0.005,0.153,0.009,0.229,0.006c0.123,1.174,0.139,2.452,0.002,3.843c-0.001,0.015,0,0.029,0,0.043h0.875
				c0.155-1.592,0.123-3.043-0.039-4.362c0.958-0.834,1.812-1.787,2.523-2.839c0.415-0.616,0.791-1.283,0.898-2.017
				C308.851,289.973,308.775,288.904,308.064,288.692z"/>
			<path style="fill:#FFFFFF;" d="M303.269,285.626c0,2.041-1.655,3.695-3.695,3.695c-2.041,0-3.695-1.654-3.695-3.695
				c0-2.041,1.654-3.695,3.695-3.695C301.615,281.931,303.269,283.585,303.269,285.626z"/>
		</g>
		<g>
			<path style="fill:#224A06;" d="M356.664,277.349c-0.234,0.036-0.437,0.177-0.627,0.318c-1.267,0.944-2.358,2.122-3.206,3.455
				c-0.797-5.368-2.191-8.262-2.298-8.476c-0.108-0.217-0.371-0.304-0.587-0.197c-0.216,0.108-0.305,0.37-0.197,0.586
				c0.025,0.051,1.37,2.841,2.167,8.07c-1.17-1.171-2.951-1.728-4.572-1.364c-0.409,0.092-0.844,0.269-1.029,0.645
				c-0.154,0.313-0.092,0.699,0.081,1.003c0.173,0.304,0.441,0.539,0.714,0.758c1.469,1.181,3.189,2.048,5.013,2.527
				c0.068,0.018,0.137,0.034,0.206,0.046c0.315,4.064,0.231,9.134-0.77,15.137c-0.004,0.024-0.005,0.048-0.005,0.072h0.879
				c1.028-6.202,1.105-11.395,0.771-15.534c0.935-0.679,1.822-1.422,2.651-2.226c0.919-0.892,1.809-1.948,1.941-3.221
				c0.039-0.375,0.004-0.772-0.188-1.097C357.414,277.524,357.038,277.291,356.664,277.349z"/>
			<path style="fill:#FFFFFF;" d="M353.934,272.84c0,2.094-1.698,3.792-3.792,3.792c-2.095,0-3.793-1.698-3.793-3.792
				c0-2.094,1.698-3.792,3.793-3.792C352.236,269.048,353.934,270.746,353.934,272.84z"/>
		</g>
		<g>
			<path style="fill:#224A06;" d="M400.182,291.03c-0.191-0.143-0.46-0.092-0.688-0.024c-1.142,0.343-2.194,0.973-3.047,1.806
				c1.22-5.275,3.19-9.143,3.217-9.198c0.111-0.215,0.027-0.479-0.188-0.589c-0.214-0.11-0.478-0.026-0.59,0.188
				c-0.029,0.056-2.081,4.08-3.327,9.555c-0.652-1.217-1.532-2.312-2.586-3.204c-0.37-0.314-0.819-0.619-1.299-0.55
				c-0.074,0.011-0.152,0.033-0.202,0.089c-0.05,0.056-0.062,0.135-0.07,0.209c-0.183,1.635,0.71,3.175,1.571,4.577
				c0.622,1.014,1.245,2.029,1.867,3.044c-0.112,0.976-0.188,1.973-0.21,2.983c0,0.003,0.001,0.007,0.001,0.01h0.875
				c0.021-0.945,0.09-1.88,0.193-2.795c1.346-0.927,2.522-2.088,3.686-3.241c0.33-0.327,0.666-0.662,0.868-1.08
				c0.206-0.426,0.259-0.924,0.147-1.383C400.365,291.277,400.305,291.123,400.182,291.03z"/>
			<path style="fill:#FFFFFF;" d="M402.802,283.415c0,1.947-1.579,3.526-3.526,3.526c-1.947,0-3.526-1.578-3.526-3.526
				c0-1.947,1.578-3.526,3.526-3.526C401.223,279.889,402.802,281.468,402.802,283.415z"/>
		</g>
		<g>
			<path style="fill:#818400;" d="M574.028,287.254c-0.379-0.257-0.891-0.094-1.307,0.096c-1.176,0.539-2.269,1.256-3.238,2.112
				c0.14-5.269-0.408-9.714-0.447-10.017c-0.031-0.24-0.25-0.408-0.489-0.379c-0.24,0.031-0.409,0.25-0.379,0.489
				c0.01,0.077,0.613,4.969,0.404,10.571c-1.578-0.663-3.288-1.008-4.999-1.001c-0.565,0.002-1.286,0.176-1.361,0.736
				c-0.038,0.285,0.123,0.557,0.295,0.788c0.694,0.926,1.695,1.619,2.807,1.942c0.878,0.255,1.809,0.284,2.685,0.546
				c0.122,0.037,0.245,0.078,0.37,0.106c-0.22,2.275-0.607,4.544-1.253,6.549c-0.014,0.045-0.019,0.09-0.019,0.134h0.892
				c0.669-2.124,1.066-4.496,1.284-6.853c0.028-0.016,0.056-0.032,0.084-0.048c1.683-0.995,3.189-2.288,4.428-3.801
				c0.237-0.29,0.47-0.599,0.558-0.963C574.432,287.897,574.338,287.465,574.028,287.254z"/>
			<path style="fill:#FFFFFF;" d="M572.492,279.5c0,2.148-1.742,3.889-3.89,3.889c-2.148,0-3.89-1.741-3.89-3.889
				c0-2.148,1.741-3.889,3.89-3.889C570.751,275.611,572.492,277.352,572.492,279.5z"/>
		</g>
		<path style="fill:#285105;" d="M30.756,299.927c-3.028-9.383,3.027-16.32-5.046-32.592c-8.073-16.271-9.84-25.606-9.84-25.606
			s12.89,7.19,19.049,20.434C41.077,275.408,35.298,292.786,30.756,299.927z"/>
		<path style="fill:#224A06;" d="M32.27,271.633c-2.523-11.469-8.2-15.777-16.4-29.904c0,0,1.766,9.334,9.84,25.606
			c8.074,16.272,2.019,23.209,5.046,32.592C32.648,292.786,34.793,283.102,32.27,271.633z"/>
		<path style="fill:#224A06;" d="M439.413,299.927L439.413,299.927c3.939-8.695,5.689-30.32,5.689-30.32
			c-10.43,11.303-11.961,30.32-11.961,30.32H439.413z"/>
		<path style="fill:#224A06;" d="M461.293,235.842c0,0-17.835,10.843-34.133,30.567c-16.298,19.724-16.629,33.517-16.629,33.517l0,0
			h2.334C423.951,286.419,429.202,264.137,461.293,235.842z"/>
		<path style="fill:#619800;" d="M423.756,248.969c2.626-12.251-1.264-11.182-4.085-2.723
			c-4.862,14.002-11.572,53.681-11.572,53.681h2.431c0,0,16.726-48.333,18.866-56.403
			C431.536,235.453,427.354,238.954,423.756,248.969z"/>
		<path style="fill:#224A06;" d="M254.063,271.041c0,0-29.806,15.378-43.809,28.886h4.522
			C225.279,294.587,240.157,283.292,254.063,271.041z"/>
		<path style="fill:#76A704;" d="M242.081,290.249c-3.085-6.899-8.098-12.84-9.606-12.11c-1.507,0.729-0.243,4.035,5.203,14.342
			c-14.052-10.258-15.481-6.758-11.815-3.549c3.666,3.209,15.365,10.995,15.365,10.995h4.011L242.081,290.249z"/>
		<path style="fill:#224A06;" d="M225.862,268.027c0,0-17.407,20.24-24.409,31.9c1.177,0,2.353,0,3.112,0
			C208.358,296.337,220.125,281.445,225.862,268.027z"/>
		<path style="fill:#224A06;" d="M161.778,257.623c0,0-5.348,14.491-12.642,42.304c0.679,0,1.516,0,2.334,0
			C158.277,288.364,157.888,281.056,161.778,257.623z"/>
		<path style="fill:#76A704;" d="M157.04,286.296c4.202-9.396,7.703-15.085,9.818-14.064c2.115,1.021-1.604,9.127-4.668,15.867
			c-3.063,6.74-8.387,11.828-8.387,11.828h-3.565L157.04,286.296z"/>
		<path style="fill:#285105;" d="M137.466,276.271l7.95,0.409c0,0,0.875,10.283-3.428,16.262
			C137.904,286.161,137.466,276.271,137.466,276.271z"/>
		<path style="fill:#619800;" d="M59.453,244.204c-1.167-0.194-1.848,0.292-2.626,8.411c-0.778,8.119-2.042,30.969-2.042,30.969
			s-1.459-8.07-2.528-15.655c-1.07-7.584-1.75-18.572-3.501-18.28c-1.75,0.292-1.945,10.307,0,24.406
			c1.945,14.099,6.029,25.872,6.029,25.872h3.89c1.07-4.173,1.653-41.915,1.848-46.777C60.717,248.288,60.62,244.399,59.453,244.204
			z"/>
		<g>
			<path style="fill:#224A06;" d="M50.503,287.254c-0.379-0.257-0.891-0.094-1.307,0.096c-1.176,0.539-2.269,1.255-3.238,2.112
				c0.14-5.269-0.408-9.714-0.447-10.017c-0.03-0.24-0.249-0.409-0.489-0.379c-0.24,0.031-0.409,0.25-0.379,0.489
				c0.01,0.077,0.613,4.969,0.404,10.571c-1.577-0.663-3.288-1.008-4.999-1.001c-0.565,0.002-1.286,0.176-1.361,0.736
				c-0.038,0.285,0.122,0.557,0.295,0.788c0.694,0.926,1.695,1.619,2.807,1.942c0.877,0.255,1.809,0.284,2.684,0.546
				c0.122,0.037,0.245,0.078,0.37,0.106c-0.219,2.275-0.607,4.544-1.252,6.549c-0.014,0.045-0.019,0.09-0.019,0.134h0.892
				c0.669-2.124,1.066-4.496,1.284-6.853c0.028-0.016,0.056-0.032,0.083-0.048c1.683-0.995,3.189-2.288,4.428-3.801
				c0.237-0.29,0.471-0.599,0.558-0.963C50.907,287.897,50.813,287.465,50.503,287.254z"/>
			<circle style="fill:#FFFFFF;" cx="45.078" cy="279.5" r="3.89"/>
		</g>
		<path style="fill:#285105;" d="M580.418,299.927c-3.501-10.849,3.501-18.871-5.835-37.686
			c-9.335-18.815-11.378-29.608-11.378-29.608s14.905,8.314,22.026,23.628C592.352,271.576,585.669,291.67,580.418,299.927z"/>
		<path style="fill:#224A06;" d="M582.169,267.211c-2.917-13.262-9.481-18.242-18.963-34.578c0,0,2.042,10.793,11.378,29.608
			c9.336,18.815,2.334,26.837,5.835,37.686C582.606,291.67,585.086,280.473,582.169,267.211z"/>
		<path style="fill:#E5C449;" d="M193.583,269.282c-0.15-0.113-0.319-0.181-0.495-0.216c0.002-0.032,0.001-0.065-0.004-0.098
			c-0.123-0.755-0.82-2.135-2.586-1.963c-0.614-0.012-7.78,0.007-17.189,7.736c-0.018,0.013-0.036,0.027-0.052,0.043
			c-0.449,0.37-0.901,0.751-1.36,1.157c-11.582,10.003-11.693,23.83-11.693,23.987h0.875l0-0.001c0-0.135,0.1-13.573,11.394-23.327
			c0.386-0.342,0.768-0.666,1.148-0.981c0.427,0.237,0.998,0.643,1.149,1.027c-0.136,0.078-0.264,0.173-0.373,0.282
			c-0.52,0.514-0.775,1.251-0.825,1.98c-0.05,0.729,0.089,1.458,0.261,2.169c0.46,1.89,1.169,3.719,2.104,5.424
			c0.435-1.539,1.003-3.047,1.249-4.627c0.246-1.58,0.141-3.282-0.695-4.646c-0.189-0.309-0.434-0.611-0.778-0.725
			c-0.027-0.009-0.055-0.012-0.083-0.019c-0.176-0.637-0.802-1.145-1.29-1.455c2.669-2.13,5.15-3.622,7.329-4.673
			c0.299,0.112,0.803,0.367,0.981,0.752c0.084,0.182,0.088,0.385,0.015,0.615c-0.18,0.087-0.347,0.207-0.497,0.337
			c-1.028,0.896-1.489,2.305-1.528,3.668c-0.038,1.363,0.298,2.705,0.631,4.027c0.323,1.282,0.647,2.564,0.97,3.846
			c0.571-0.21,1.199-0.262,1.797-0.15c-0.03-1.74,0.363-3.455,0.643-5.173c0.28-1.718,0.444-3.504-0.035-5.177
			c-0.171-0.597-0.523-1.243-1.073-1.447c0.051-0.385-0.028-0.695-0.129-0.913c-0.173-0.375-0.469-0.651-0.767-0.85
			c4.709-2.069,7.77-2.01,7.819-2.01c0.021,0.001,0.041,0,0.061-0.002c1.381-0.143,1.637,1.092,1.661,1.231
			c0.002,0.014,0.007,0.026,0.01,0.04c-0.356,0.132-0.682,0.374-0.901,0.68c-0.5,0.702-0.571,1.616-0.56,2.477
			c0.035,2.71,0.71,5.393,0.596,8.101c0.45-0.638,1.558-0.625,1.992,0.025c-0.46-1.709,0.108-3.504,0.603-5.203
			c0.495-1.699,0.909-3.579,0.177-5.19C194.008,269.751,193.836,269.471,193.583,269.282z"/>
		<path style="fill:#E5C449;" d="M99.741,272.936c-0.048-0.981-0.221-1.952-0.415-2.915c-0.159-0.788-0.34-1.591-0.763-2.275
			c-0.278-0.45-0.724-0.854-1.223-0.953c0-0.027-0.001-0.055-0.006-0.083c-0.173-0.988-0.654-1.38-1.027-1.534
			c-0.61-0.253-1.353-0.076-2.209,0.524c-2.622,1.839-4.974,3.732-7.087,5.63c-0.044,0.028-0.082,0.062-0.113,0.102
			c-2.349,2.118-4.398,4.242-6.177,6.305c-0.052,0.04-0.096,0.089-0.125,0.147c-3.351,3.907-5.741,7.585-7.395,10.574
			c-3.629,6.559-4.586,11.189-4.625,11.383c-0.006,0.029-0.009,0.058-0.009,0.086h0.886c0.22-0.977,2.596-10.69,11.795-21.452
			c0.19-0.031,0.544-0.054,0.816,0.141c0.28,0.201,0.433,0.608,0.453,1.207c0.002,0.06,0.016,0.117,0.04,0.169
			c-0.301,0.199-0.527,0.5-0.678,0.829c-0.432,0.941-0.322,2.038-0.09,3.047c0.493,2.147,1.501,4.175,2.917,5.863
			c0.665-2.992,0.991-6.243-0.306-9.02c-0.148-0.317-0.331-0.641-0.636-0.814c-0.115-0.066-0.243-0.103-0.374-0.118
			c-0.033-0.882-0.31-1.515-0.825-1.88c-0.19-0.135-0.392-0.216-0.588-0.263c1.627-1.841,3.453-3.705,5.506-5.557
			c0.061-0.015,0.167-0.031,0.273,0.019c0.176,0.083,0.324,0.337,0.417,0.718c0.007,0.027,0.021,0.05,0.033,0.075
			c-0.297,0.195-0.534,0.499-0.671,0.831c-0.221,0.534-0.229,1.131-0.195,1.708c0.166,2.816,1.277,5.568,3.113,7.71
			c0.274,0.32,0.607,0.648,1.027,0.675c0.001-0.347,0.118-0.693,0.328-0.97c0.357,0.016,0.708,0.147,0.988,0.369
			c-0.231-1.724-0.463-3.448-0.694-5.172c-0.121-0.904-0.244-1.814-0.538-2.678c-0.294-0.863-0.775-1.686-1.497-2.243
			c-0.301-0.232-0.659-0.416-1.033-0.447c-0.002-0.023-0.004-0.045-0.01-0.068c-0.145-0.588-0.399-0.998-0.757-1.224
			c1.918-1.68,4.023-3.345,6.335-4.966c0.578-0.406,1.065-0.559,1.372-0.432c0.308,0.128,0.442,0.547,0.5,0.877
			c0.005,0.029,0.013,0.057,0.024,0.084c-0.116,0.069-0.225,0.152-0.322,0.245c-0.81,0.77-0.929,2.012-0.858,3.127
			c0.185,2.913,1.34,5.757,3.239,7.974c-0.05-0.257-0.002-0.531,0.133-0.755c0.482,0.013,0.952,0.263,1.232,0.655
			C99.52,276.48,99.828,274.691,99.741,272.936z"/>
		<path style="fill:#E5BD42;" d="M90.67,252.921c-0.044-0.015-0.089-0.022-0.134-0.029c-0.007-0.067-0.028-0.133-0.068-0.193
			c-0.019-0.028-0.469-0.697-1.324-0.784c-0.719-0.077-1.472,0.276-2.257,1.059c-1.718,1.925-3.303,3.824-4.77,5.689
			c-0.029,0.029-0.055,0.06-0.075,0.095c-1.558,1.984-2.979,3.928-4.276,5.821c-0.045,0.043-0.08,0.094-0.103,0.15
			c-5.782,8.472-9.07,15.914-10.917,21.301c-0.263,0.767-0.502,1.507-0.721,2.219c-0.206-4.002-0.998-7.849-2.003-11.267
			c0.008-0.107-0.023-0.213-0.088-0.298c-0.894-2.982-1.943-5.625-2.895-7.747c-0.012-0.081-0.046-0.158-0.1-0.221
			c-1.441-3.182-2.631-5.133-2.668-5.192c-0.412-0.693-0.944-1.088-1.581-1.175c-1.141-0.156-2.143,0.785-2.185,0.825
			c-0.011,0.01-0.015,0.023-0.024,0.034c-0.025-0.016-0.046-0.036-0.072-0.051c-0.481-0.275-1.085-0.264-1.611-0.091
			c-0.527,0.173-0.991,0.491-1.442,0.814c-2.701,1.937-5.173,4.192-7.35,6.705c0.325,0.337,0.988,0.216,1.226,0.619
			c0.209,0.354-0.073,0.882,0.202,1.187c2.611-2.124,6.216-2.84,8.601-5.215c0.553-0.551,1.042-1.211,1.185-1.979
			c0.084-0.45,0.02-0.939-0.182-1.346c0.023-0.015,0.048-0.024,0.069-0.043c0.007-0.007,0.746-0.697,1.466-0.592
			c0.358,0.05,0.676,0.304,0.949,0.762c0.034,0.054,1.019,1.669,2.273,4.34c-1.248-0.135-2.006,0.635-2.045,0.676
			c-0.011,0.011-0.015,0.026-0.024,0.038c-0.221-0.094-0.48-0.1-0.722-0.066c-0.578,0.082-1.115,0.343-1.62,0.637
			c-2.849,1.659-4.973,4.518-5.738,7.725c0.385,0.013,0.752,0.269,0.897,0.626c1.609-1.091,3.218-2.183,4.827-3.274
			c0.935-0.634,1.902-1.302,2.469-2.279c0.414-0.713,0.585-1.563,0.479-2.38c-0.014-0.111-0.039-0.221-0.071-0.33
			c0.048-0.022,0.094-0.049,0.133-0.089c0.03-0.031,0.727-0.711,1.878-0.273c0.852,1.901,1.783,4.226,2.606,6.837
			c-1.12-0.282-1.962,0.234-2.302,0.633c-0.002,0.002-0.003,0.004-0.005,0.007c-0.325-0.176-0.73-0.202-1.094-0.109
			c-0.456,0.116-0.855,0.388-1.224,0.679c-1.958,1.543-3.362,3.775-3.906,6.208c1.715-0.569,3.326-1.454,4.727-2.596
			c0.582-0.475,1.132-0.998,1.567-1.611c0.254-0.359,0.471-0.759,0.534-1.194c0.034-0.238,0.014-0.487-0.062-0.715
			c0.047-0.025,0.092-0.058,0.129-0.101c0.03-0.035,0.714-0.807,1.959-0.139c1.231,4.182,2.135,9.012,2.004,13.971
			c-1.376,5.365-1.43,8.554-1.432,8.724c0,0.002,0,0.003,0,0.005h0.912c0.873-2.803,1.293-5.657,1.384-8.471
			c1.609-6.272,5.036-15.556,12.334-26.249c0.227-0.133,0.712-0.35,1.046-0.214c0.244,0.1,0.417,0.395,0.514,0.88
			c0.011,0.057,0.035,0.107,0.065,0.153c-0.068,0.065-0.131,0.137-0.179,0.216c-0.251,0.417-0.258,0.934-0.227,1.42
			c0.131,2.064,0.824,4.094,2.008,5.79c0.67-1.904,0.784-4,0.325-5.965c-0.111-0.473-0.258-0.947-0.536-1.345
			c-0.088-0.126-0.192-0.246-0.324-0.325c-0.085-0.051-0.177-0.076-0.27-0.087c-0.001-0.01-0.001-0.019-0.003-0.029
			c-0.159-0.793-0.511-1.304-1.047-1.52c-0.196-0.079-0.396-0.107-0.589-0.106c1.092-1.556,2.264-3.14,3.526-4.747
			c0.222-0.088,0.683-0.215,1.033-0.07c0.231,0.096,0.396,0.302,0.506,0.63c0.019,0.058,0.053,0.106,0.091,0.149
			c-0.013,0.016-0.026,0.032-0.037,0.047c-0.861,1.18-0.588,2.821-0.143,4.212c0.575,1.797,1.376,3.521,2.378,5.119
			c0.588-2.675,0.457-5.505-0.376-8.115c-0.17-0.532-0.383-1.077-0.803-1.444c-0.077-0.068-0.164-0.128-0.26-0.161
			c-0.003-0.029-0.01-0.058-0.02-0.086c-0.192-0.574-0.529-0.965-1.001-1.16c-0.189-0.078-0.382-0.116-0.568-0.128
			c1.255-1.563,2.593-3.146,4.021-4.746c0.56-0.557,1.085-0.833,1.522-0.791c0.398,0.036,0.634,0.319,0.682,0.383
			c-0.085,0.074-0.16,0.16-0.22,0.253c-0.248,0.38-0.309,0.851-0.334,1.304c-0.159,2.818,0.846,5.685,2.729,7.787
			c0.553-2.911,0.792-6.043-0.46-8.729C91.274,253.422,91.047,253.045,90.67,252.921z"/>
		<path style="fill:#E5C449;" d="M26.345,257.807c-0.191-0.456-0.488-0.906-0.947-1.091c-0.255-0.103-0.534-0.104-0.8-0.035
			c-0.027-0.064-0.067-0.124-0.125-0.171c-0.667-0.547-1.376-0.747-2.049-0.578c-0.877,0.219-1.621,1.049-2.21,2.467
			c-0.136,0.327-0.277,0.664-0.424,1.013c-3.142,7.487-8.396,20.014-4.964,40.516h0.879c0-0.024-0.001-0.048-0.005-0.073
			c-1.697-10.086-1.265-18.221-0.02-24.764c0.321-0.221,1.208-0.69,1.998,0.212c0.081,0.092,0.192,0.14,0.306,0.147
			c0.064,0.999,0.476,1.973,1.159,2.705c0.593,0.636,1.373,1.091,1.895,1.788c-0.022-1.09-0.231-2.176-0.615-3.196
			c-0.175-0.465-0.392-0.925-0.729-1.29c-0.332-0.359-0.798-0.617-1.286-0.614c-0.018-0.042-0.04-0.081-0.072-0.117
			c-0.8-0.913-1.724-0.944-2.44-0.709c0.58-2.774,1.3-5.25,2.052-7.456c0.237-0.136,0.815-0.416,1.363-0.255
			c0.428,0.126,0.776,0.512,1.035,1.148c0.016,0.039,0.038,0.074,0.064,0.106c-0.02,0.024-0.04,0.048-0.059,0.074
			c-0.323,0.454-0.331,1.075-0.148,1.602c0.183,0.526,0.533,0.976,0.895,1.4c0.45,0.527,0.929,1.036,1.289,1.628
			c0.36,0.592,0.596,1.289,0.502,1.976c0.102-1.008,1.063-1.852,2.075-1.823c-0.801-0.629-1.427-1.478-1.79-2.428
			c-0.189-0.494-0.308-1.014-0.523-1.497c-0.215-0.483-0.547-0.943-1.028-1.163c-0.138-0.063-0.289-0.103-0.441-0.112
			c-0.005-0.031-0.013-0.061-0.026-0.091c-0.366-0.898-0.906-1.457-1.606-1.66c-0.434-0.125-0.859-0.088-1.22,0.004
			c0.78-2.173,1.575-4.069,2.267-5.717c0.147-0.35,0.289-0.688,0.425-1.015c0.471-1.132,1.029-1.808,1.614-1.954
			c0.459-0.115,0.896,0.111,1.204,0.346c-0.013,0.014-0.028,0.025-0.04,0.039c-0.393,0.439-0.555,1.044-0.58,1.632
			c-0.111,2.683,2.277,4.836,2.782,7.474c0.21-0.342,0.24-0.762,0.37-1.142c0.13-0.38,0.441-0.763,0.842-0.739
			c0.318,0.02,0.627,0.293,0.919,0.166c-0.468-0.67-0.809-1.429-0.999-2.224C26.775,260.839,26.94,259.224,26.345,257.807z"/>
		<path style="fill:#E5C449;" d="M524.494,237.469c-1.285,0-2.327,1.042-2.327,2.326c0,0.585,0.217,1.117,0.573,1.526
			c-0.63,0.568-1.531,1.217-2.799,1.84c-0.311-2.089-0.681-4.17-1.107-6.24c1.29-0.788,2.234-1.576,2.906-2.251
			c0.323,0.17,0.691,0.267,1.081,0.267c1.285,0,2.327-1.042,2.327-2.327c0-1.285-1.042-2.326-2.327-2.326
			c-1.285,0-2.327,1.042-2.327,2.326c0,0.583,0.216,1.115,0.571,1.523c-0.577,0.571-1.365,1.231-2.413,1.897
			c-0.355-1.658-0.749-3.308-1.177-4.952c1.195-0.917,2.106-2.24,2.727-3.356c0.186,0.048,0.379,0.076,0.58,0.076
			c1.285,0,2.327-1.042,2.327-2.326s-1.042-2.326-2.327-2.326c-1.285,0-2.327,1.042-2.327,2.326c0,0.777,0.383,1.464,0.969,1.886
			c-0.527,0.937-1.262,2.016-2.189,2.816c-0.437-1.625-0.906-3.243-1.415-4.851c0.584-0.423,0.966-1.108,0.966-1.885
			c0-1.285-1.042-2.326-2.327-2.326c-1.285,0-2.327,1.042-2.327,2.326c0,1.285,1.042,2.327,2.327,2.327
			c0.201,0,0.395-0.028,0.581-0.076c0.498,1.58,0.958,3.169,1.387,4.765c-0.808-0.104-2.079-0.467-3.226-0.837
			c0.061-0.207,0.095-0.426,0.095-0.653c0-1.285-1.042-2.327-2.327-2.327c-1.285,0-2.327,1.042-2.327,2.327
			c0,1.285,1.042,2.326,2.327,2.326c0.748,0,1.412-0.355,1.838-0.903c1.292,0.422,2.896,0.885,3.853,0.943
			c0.424,1.633,0.815,3.273,1.167,4.921c-0.945-0.098-2.259-0.383-3.376-0.654c0.004-0.055,0.008-0.11,0.008-0.165
			c0-1.285-1.042-2.327-2.327-2.327c-1.285,0-2.327,1.042-2.327,2.327c0,1.285,1.042,2.326,2.327,2.326
			c0.93,0,1.73-0.547,2.102-1.335c1.244,0.302,2.745,0.623,3.77,0.699c0.419,2.041,0.783,4.092,1.091,6.151
			c-0.992-0.187-2.04-0.49-2.924-0.778c0.02-0.122,0.033-0.247,0.033-0.376c0-1.285-1.042-2.326-2.327-2.326
			c-1.285,0-2.327,1.042-2.327,2.326c0,1.285,1.042,2.327,2.327,2.327c0.854,0,1.598-0.461,2.003-1.147
			c0.997,0.326,2.208,0.671,3.343,0.862c0.755,5.35,1.137,10.756,1.131,16.186c-0.004,4.403-0.256,8.729-0.56,13.523
			c-0.547,8.641-1.163,17.382-1.829,26.055h0.855c0.664-8.655,1.278-17.378,1.825-26.001c0.305-4.808,0.557-9.149,0.562-13.576
			c0.006-5.47-0.379-10.915-1.139-16.305c1.548-0.73,2.621-1.507,3.353-2.187c0.321,0.167,0.685,0.263,1.072,0.263
			c1.285,0,2.327-1.042,2.327-2.326C526.821,238.511,525.779,237.469,524.494,237.469z"/>
		<path style="fill:#E5C449;" d="M460.505,224.592c-1.249,0-2.261,1.012-2.261,2.261c0,0.04,0.004,0.08,0.006,0.12
			c-1.282,0.232-2.988,0.397-4.654,0.12c1.553-1.85,3.232-3.592,5.061-5.208c0.4,0.357,0.925,0.575,1.503,0.575
			c1.249,0,2.261-1.012,2.261-2.261c0-1.248-1.012-2.261-2.261-2.261c-1.249,0-2.261,1.012-2.261,2.261
			c0,0.362,0.087,0.704,0.239,1.007c-1.859,1.638-3.564,3.402-5.14,5.273c-0.185-0.987-0.141-2.41-0.03-3.659
			c1.18-0.077,2.113-1.055,2.113-2.253c0-1.249-1.012-2.261-2.261-2.261c-1.249,0-2.261,1.012-2.261,2.261
			c0,1.004,0.655,1.855,1.562,2.149c-0.136,1.506-0.193,3.421,0.209,4.572c-1.327,1.637-2.565,3.349-3.728,5.125
			c-0.493-0.981-0.944-2.298-1.28-3.401c0.746-0.37,1.259-1.136,1.259-2.024c0-1.249-1.012-2.261-2.261-2.261
			c-1.249,0-2.261,1.012-2.261,2.261c0,1.249,1.012,2.261,2.261,2.261c0.06,0,0.119-0.004,0.178-0.009
			c0.395,1.302,0.955,2.911,1.576,3.993c-1.503,2.363-2.886,4.831-4.19,7.374c-0.797-0.927-1.542-2.458-2.072-3.71
			c0.641-0.399,1.068-1.108,1.068-1.918c0-1.249-1.012-2.261-2.261-2.261c-1.249,0-2.261,1.012-2.261,2.261
			c0,1.249,1.012,2.261,2.261,2.261c0.135,0,0.267-0.014,0.395-0.037c0.601,1.419,1.484,3.21,2.459,4.214
			c-1.844,3.662-3.537,7.469-5.204,11.335c-5.312,12.318-10.613,25.501-11.995,39.316c-0.198,2.045-0.193,5.237-0.141,7.859h0.855
			c-0.052-2.612-0.058-5.788,0.134-7.776c1.369-13.692,6.644-26.805,11.929-39.062c1.662-3.854,3.35-7.649,5.187-11.296
			c1.859-0.163,3.377-0.575,4.483-0.978c0.41,0.572,1.079,0.947,1.837,0.947c1.249,0,2.261-1.012,2.261-2.261
			c0-1.249-1.012-2.261-2.261-2.261c-1.249,0-2.261,1.012-2.261,2.261c0,0.184,0.024,0.361,0.066,0.532
			c-0.935,0.336-2.177,0.678-3.665,0.855c1.276-2.481,2.627-4.887,4.092-7.192c1.517,0.145,2.933,0.191,4.096,0.191
			c0.285,0,0.554-0.003,0.807-0.008c0.238,0.994,1.13,1.734,2.197,1.734c1.249,0,2.261-1.012,2.261-2.261s-1.012-2.261-2.261-2.261
			c-1.138,0-2.078,0.842-2.235,1.937c-1.154,0.02-2.674,0-4.345-0.14c1.147-1.751,2.366-3.438,3.671-5.049
			c0.833,0.18,1.676,0.256,2.484,0.255c1.104,0,2.139-0.131,2.991-0.289c0.36,0.772,1.14,1.308,2.048,1.308
			c1.249,0,2.261-1.012,2.261-2.261C462.766,225.605,461.754,224.592,460.505,224.592z"/>
		<path style="fill:#224A06;" d="M527.461,249.625c0,0-5.032-2.586-17.139,50.302h3.063c0,0,11.424-26.878,17.892-40.012
			c0,0,1.263-4.091,0-7.227C530.013,249.552,527.461,249.625,527.461,249.625z"/>
		<path style="fill:#285105;" d="M527.461,249.625c0,0,10.575,1.989,15.316-1.995c-0.875,12.788-2.115,28.467-4.157,39.114
			C529.43,274.347,533.952,256.115,527.461,249.625z"/>
		<path style="fill:#E5BD42;" d="M559.557,257.477c-0.096-0.072-0.198-0.141-0.314-0.168c-0.033-0.007-0.067-0.008-0.1-0.009
			c-0.003-0.011-0.005-0.022-0.009-0.032c-0.022-0.057-0.554-1.393-1.676-1.744c-0.604-0.189-1.239-0.064-1.898,0.381
			c-0.043,0.03-3.503,2.524-7.827,7.346c-0.009,0.009-0.018,0.019-0.026,0.029c-1,1.116-2.045,2.356-3.104,3.719
			c-5.217,6.71-11.872,17.858-13.944,32.868c-0.007,0.049,0.025,0.087,0.035,0.133h0.825c0.001-0.005,0.007-0.008,0.007-0.013
			c1.736-12.567,6.725-22.391,11.34-29.124c0.207-0.165,0.709-0.469,1.15-0.353c0.488,0.129,0.795,0.745,0.966,1.239
			c0.014,0.04,0.035,0.075,0.058,0.108c-0.396,0.381-0.631,0.998-0.663,1.568c-0.101,1.754,0.925,3.353,1.928,4.795
			c1.004,1.442,2.07,2.997,2.068,4.753c0.576-0.573,0.232-1.728,0.887-2.208c0.583-0.427,1.465,0.055,2.109-0.273
			c-0.972-0.618-1.758-1.524-2.231-2.574c-0.78-1.728-0.722-3.79-1.734-5.394c-0.345-0.547-0.889-1.056-1.535-1.036
			c-0.019,0-0.036,0.004-0.054,0.005c-0.003-0.011-0.004-0.021-0.007-0.032c-0.352-1.014-0.882-1.619-1.576-1.799
			c-0.167-0.043-0.331-0.056-0.49-0.05c0.52-0.724,1.032-1.408,1.531-2.051c1.04-1.338,2.065-2.556,3.045-3.653
			c0.216-0.092,0.91-0.35,1.523-0.134c0.382,0.135,0.67,0.428,0.88,0.898c0.019,0.042,0.044,0.08,0.074,0.113
			c-0.297,0.417-0.34,1.078-0.24,1.619c0.192,1.041,0.637,2.035,1.285,2.872c0.46,0.595,1.018,1.108,1.475,1.705
			c1.165,1.517,1.605,3.455,1.966,5.334c0.365-0.303,0.337-0.856,0.373-1.329c0.036-0.473,0.318-1.049,0.79-0.995
			c0.358,0.041,0.808,0.41,0.987,0.097c-1.021-1.195-1.766-2.624-2.16-4.146c-0.25-0.965-0.362-1.973-0.753-2.89
			c-0.411-0.966-1.129-1.799-2.024-2.349c-0.288-0.177-0.622-0.325-0.952-0.318c-0.006-0.023-0.013-0.047-0.023-0.069
			c-0.308-0.691-0.776-1.151-1.388-1.367c-0.275-0.097-0.553-0.133-0.816-0.133c3.804-4.073,6.712-6.171,6.743-6.193
			c0.422-0.285,0.795-0.371,1.135-0.266c0.598,0.185,1.015,0.949,1.125,1.227c0.019,0.049,0.048,0.092,0.08,0.13
			c-0.423,0.493-0.525,1.253-0.519,1.932c0.008,0.815,0.094,1.637,0.354,2.41c0.357,1.063,1.025,1.988,1.575,2.965
			c0.586,1.042,1.045,2.155,1.363,3.307c0.071-0.568,0.141-1.136,0.212-1.704c0.663,0.297,1.281,0.694,1.828,1.172
			c-0.902-1.632-1.013-3.563-1.301-5.405C561.624,260.55,561.049,258.595,559.557,257.477z"/>
		<path style="fill:#E5C449;" d="M299.931,265.558c-1.298,0-2.35,1.052-2.35,2.349c0,0.047,0.004,0.094,0.007,0.14
			c-1.342,0.243-3.129,0.414-4.869,0.121c1.62-1.931,3.37-3.749,5.279-5.435c0.417,0.377,0.968,0.608,1.574,0.608
			c1.298,0,2.349-1.052,2.349-2.349c0-1.298-1.052-2.349-2.349-2.349c-1.298,0-2.35,1.052-2.35,2.349
			c0,0.383,0.094,0.743,0.256,1.062c-1.939,1.708-3.716,3.549-5.359,5.501c-0.2-1.029-0.154-2.526-0.039-3.838
			c1.234-0.071,2.213-1.091,2.213-2.342c0-1.298-1.052-2.349-2.349-2.349s-2.35,1.052-2.35,2.349c0,1.05,0.689,1.938,1.639,2.239
			c-0.141,1.567-0.2,3.558,0.22,4.749c-1.387,1.71-2.68,3.499-3.895,5.356c-0.518-1.023-0.992-2.405-1.343-3.561
			c0.783-0.381,1.323-1.182,1.323-2.111c0-1.297-1.052-2.349-2.35-2.349c-1.297,0-2.349,1.052-2.349,2.349
			c0,1.297,1.052,2.349,2.349,2.349c0.068,0,0.135-0.004,0.202-0.01c0.411,1.355,0.994,3.029,1.64,4.151
			c-1.568,2.465-3.01,5.039-4.371,7.692c-0.835-0.963-1.616-2.566-2.171-3.876c0.673-0.413,1.124-1.154,1.124-2.002
			c0-1.297-1.052-2.349-2.349-2.349c-1.298,0-2.35,1.052-2.35,2.349c0,1.298,1.052,2.349,2.35,2.349
			c0.146,0,0.289-0.015,0.427-0.041c0.625,1.477,1.544,3.339,2.558,4.378c-1.918,3.808-3.679,7.768-5.412,11.788
			c-0.817,1.895-1.528,3.566-2.169,5.1h0.924c0.604-1.442,1.269-3.003,2.027-4.763c1.728-4.008,3.484-7.955,5.394-11.747
			c1.932-0.168,3.509-0.596,4.659-1.015c0.425,0.603,1.126,0.997,1.919,0.997c1.298,0,2.35-1.052,2.35-2.349
			c0-1.297-1.052-2.349-2.35-2.349s-2.349,1.052-2.349,2.349c0,0.197,0.027,0.387,0.072,0.57c-0.979,0.352-2.281,0.709-3.842,0.892
			c1.332-2.591,2.742-5.105,4.273-7.511c1.579,0.151,3.053,0.199,4.265,0.199c0.295,0,0.573-0.003,0.835-0.008
			c0.241,1.041,1.172,1.818,2.287,1.818c1.298,0,2.349-1.052,2.349-2.349c0-1.298-1.052-2.349-2.349-2.349
			c-1.189,0-2.169,0.883-2.325,2.029c-1.206,0.021-2.796,0-4.542-0.148c1.198-1.831,2.473-3.595,3.838-5.28
			c0.867,0.188,1.746,0.267,2.588,0.267c1.144,0,2.216-0.135,3.101-0.299c0.371,0.81,1.186,1.374,2.136,1.374
			c1.298,0,2.349-1.052,2.349-2.349C302.281,266.61,301.229,265.558,299.931,265.558z"/>
	</g>
</g>
</svg>
