<svg id="visual" viewBox="0 0 900 600" width="900" height="600" xmlns="http://www.w3.org/2000/svg" xmlns:xlink="http://www.w3.org/1999/xlink" version="1.1"><rect x="0" y="0" width="900" height="600" fill="#001220"></rect><path d="M0 188L21.5 172C43 156 86 124 128.8 125.5C171.7 127 214.3 162 257.2 176C300 190 343 183 385.8 164.2C428.7 145.3 471.3 114.7 514.2 113C557 111.3 600 138.7 642.8 139.5C685.7 140.3 728.3 114.7 771.2 102.3C814 90 857 91 878.5 91.5L900 92L900 601L878.5 601C857 601 814 601 771.2 601C728.3 601 685.7 601 642.8 601C600 601 557 601 514.2 601C471.3 601 428.7 601 385.8 601C343 601 300 601 257.2 601C214.3 601 171.7 601 128.8 601C86 601 43 601 21.5 601L0 601Z" fill="#d6d317"></path><path d="M0 156L21.5 164.2C43 172.3 86 188.7 128.8 192.8C171.7 197 214.3 189 257.2 198C300 207 343 233 385.8 242.2C428.7 251.3 471.3 243.7 514.2 228.5C557 213.3 600 190.7 642.8 191.8C685.7 193 728.3 218 771.2 229.2C814 240.3 857 237.7 878.5 236.3L900 235L900 601L878.5 601C857 601 814 601 771.2 601C728.3 601 685.7 601 642.8 601C600 601 557 601 514.2 601C471.3 601 428.7 601 385.8 601C343 601 300 601 257.2 601C214.3 601 171.7 601 128.8 601C86 601 43 601 21.5 601L0 601Z" fill="#b4b02a"></path><path d="M0 351L21.5 333.2C43 315.3 86 279.7 128.8 271.2C171.7 262.7 214.3 281.3 257.2 292.7C300 304 343 308 385.8 316.8C428.7 325.7 471.3 339.3 514.2 339.2C557 339 600 325 642.8 318.7C685.7 312.3 728.3 313.7 771.2 303.8C814 294 857 273 878.5 262.5L900 252L900 601L878.5 601C857 601 814 601 771.2 601C728.3 601 685.7 601 642.8 601C600 601 557 601 514.2 601C471.3 601 428.7 601 385.8 601C343 601 300 601 257.2 601C214.3 601 171.7 601 128.8 601C86 601 43 601 21.5 601L0 601Z" fill="#928e32"></path><path d="M0 420L21.5 419.3C43 418.7 86 417.3 128.8 403.7C171.7 390 214.3 364 257.2 353.8C300 343.7 343 349.3 385.8 356.5C428.7 363.7 471.3 372.3 514.2 379.3C557 386.3 600 391.7 642.8 398.5C685.7 405.3 728.3 413.7 771.2 414.2C814 414.7 857 407.3 878.5 403.7L900 400L900 601L878.5 601C857 601 814 601 771.2 601C728.3 601 685.7 601 642.8 601C600 601 557 601 514.2 601C471.3 601 428.7 601 385.8 601C343 601 300 601 257.2 601C214.3 601 171.7 601 128.8 601C86 601 43 601 21.5 601L0 601Z" fill="#726e35"></path><path d="M0 442L21.5 445.8C43 449.7 86 457.3 128.8 456.2C171.7 455 214.3 445 257.2 439C300 433 343 431 385.8 429.3C428.7 427.7 471.3 426.3 514.2 430.8C557 435.3 600 445.7 642.8 447.3C685.7 449 728.3 442 771.2 433.3C814 424.7 857 414.3 878.5 409.2L900 404L900 601L878.5 601C857 601 814 601 771.2 601C728.3 601 685.7 601 642.8 601C600 601 557 601 514.2 601C471.3 601 428.7 601 385.8 601C343 601 300 601 257.2 601C214.3 601 171.7 601 128.8 601C86 601 43 601 21.5 601L0 601Z" fill="#525035"></path><path d="M0 481L21.5 492.7C43 504.3 86 527.7 128.8 539.8C171.7 552 214.3 553 257.2 552.2C300 551.3 343 548.7 385.8 546.2C428.7 543.7 471.3 541.3 514.2 542.5C557 543.7 600 548.3 642.8 540.2C685.7 532 728.3 511 771.2 502.5C814 494 857 498 878.5 500L900 502L900 601L878.5 601C857 601 814 601 771.2 601C728.3 601 685.7 601 642.8 601C600 601 557 601 514.2 601C471.3 601 428.7 601 385.8 601C343 601 300 601 257.2 601C214.3 601 171.7 601 128.8 601C86 601 43 601 21.5 601L0 601Z" fill="#333333"></path></svg>