<svg id="visual" viewBox="0 0 900 600" width="900" height="600" xmlns="http://www.w3.org/2000/svg" xmlns:xlink="http://www.w3.org/1999/xlink" version="1.1"><path d="M0 127L69 91L138 67L208 127L277 49L346 133L415 61L485 139L554 37L623 157L692 133L762 67L831 97L900 43L900 0L831 0L762 0L692 0L623 0L554 0L485 0L415 0L346 0L277 0L208 0L138 0L69 0L0 0Z" fill="#e3e068"></path><path d="M0 163L69 121L138 79L208 199L277 109L346 199L415 85L485 181L554 79L623 229L692 175L762 139L831 175L900 103L900 41L831 95L762 65L692 131L623 155L554 35L485 137L415 59L346 131L277 47L208 125L138 65L69 89L0 125Z" fill="#e1de5d"></path><path d="M0 241L69 217L138 175L208 259L277 175L346 235L415 133L485 229L554 151L623 259L692 259L762 211L831 247L900 133L900 101L831 173L762 137L692 173L623 227L554 77L485 179L415 83L346 197L277 107L208 197L138 77L69 119L0 161Z" fill="#dedb51"></path><path d="M0 283L69 229L138 187L208 289L277 223L346 241L415 151L485 277L554 193L623 289L692 265L762 259L831 259L900 163L900 131L831 245L762 209L692 257L623 257L554 149L485 227L415 131L346 233L277 173L208 257L138 173L69 215L0 239Z" fill="#dcd944"></path><path d="M0 325L69 241L138 217L208 313L277 235L346 247L415 193L485 283L554 217L623 319L692 307L762 301L831 277L900 205L900 161L831 257L762 257L692 263L623 287L554 191L485 275L415 149L346 239L277 221L208 287L138 185L69 227L0 281Z" fill="#dad735"></path><path d="M0 349L69 283L138 235L208 385L277 253L346 319L415 301L485 361L554 283L623 397L692 397L762 349L831 379L900 313L900 203L831 275L762 299L692 305L623 317L554 215L485 281L415 191L346 245L277 233L208 311L138 215L69 239L0 323Z" fill="#d7d423"></path><path d="M0 367L69 307L138 295L208 415L277 295L346 349L415 313L485 385L554 307L623 433L692 421L762 403L831 421L900 319L900 311L831 377L762 347L692 395L623 395L554 281L485 359L415 299L346 317L277 251L208 383L138 233L69 281L0 347Z" fill="#d1ce17"></path><path d="M0 469L69 463L138 493L208 493L277 505L346 475L415 487L485 499L554 463L623 499L692 475L762 541L831 517L900 499L900 317L831 419L762 401L692 419L623 431L554 305L485 383L415 311L346 347L277 293L208 413L138 293L69 305L0 365Z" fill="#c6c316"></path><path d="M0 511L69 499L138 499L208 529L277 517L346 523L415 511L485 523L554 499L623 505L692 481L762 553L831 529L900 505L900 497L831 515L762 539L692 473L623 497L554 461L485 497L415 485L346 473L277 503L208 491L138 491L69 461L0 467Z" fill="#bbb915"></path><path d="M0 529L69 541L138 529L208 541L277 559L346 559L415 517L485 547L554 529L623 535L692 517L762 565L831 535L900 553L900 503L831 527L762 551L692 479L623 503L554 497L485 521L415 509L346 521L277 515L208 527L138 497L69 497L0 509Z" fill="#b1ae15"></path><path d="M0 577L69 565L138 565L208 583L277 571L346 589L415 577L485 571L554 571L623 571L692 571L762 583L831 571L900 571L900 551L831 533L762 563L692 515L623 533L554 527L485 545L415 515L346 557L277 557L208 539L138 527L69 539L0 527Z" fill="#a6a414"></path><path d="M0 601L69 601L138 601L208 601L277 601L346 601L415 601L485 601L554 601L623 601L692 601L762 601L831 601L900 601L900 569L831 569L762 581L692 569L623 569L554 569L485 569L415 575L346 587L277 569L208 581L138 563L69 563L0 575Z" fill="#9c9a13"></path></svg>